<svg xmlns="http://www.w3.org/2000/svg" xmlns:xlink="http://www.w3.org/1999/xlink" xml:space="preserve" viewBox="0 0 3385 1075"><defs><filter id="fx0" x="-10%" y="-10%" width="120%" height="120%" filterUnits="userSpaceOnUse" primitiveUnits="userSpaceOnUse"><feComponentTransfer color-interpolation-filters="sRGB"><feFuncR type="discrete" tableValues="0 0"/><feFuncG type="discrete" tableValues="0 0"/><feFuncB type="discrete" tableValues="0 0"/><feFuncA type="linear" slope="0.380392" intercept="0"/></feComponentTransfer><feGaussianBlur stdDeviation="4.8119 4.8119"/></filter><filter id="fx1" x="-10%" y="-10%" width="120%" height="120%" filterUnits="userSpaceOnUse" primitiveUnits="userSpaceOnUse"><feComponentTransfer color-interpolation-filters="sRGB"><feFuncR type="discrete" tableValues="0 0"/><feFuncG type="discrete" tableValues="0 0"/><feFuncB type="discrete" tableValues="0 0"/><feFuncA type="linear" slope="0.380392" intercept="0"/></feComponentTransfer><feGaussianBlur stdDeviation="4.8119 4.8119"/></filter><filter id="fx2" x="-10%" y="-10%" width="120%" height="120%" filterUnits="userSpaceOnUse" primitiveUnits="userSpaceOnUse"><feComponentTransfer color-interpolation-filters="sRGB"><feFuncR type="discrete" tableValues="0 0"/><feFuncG type="discrete" tableValues="0 0"/><feFuncB type="discrete" tableValues="0 0"/><feFuncA type="linear" slope="0.380392" intercept="0"/></feComponentTransfer><feGaussianBlur stdDeviation="4.8119 4.8119"/></filter><filter id="fx3" x="-10%" y="-10%" width="120%" height="120%" filterUnits="userSpaceOnUse" primitiveUnits="userSpaceOnUse"><feComponentTransfer color-interpolation-filters="sRGB"><feFuncR type="discrete" tableValues="0 0"/><feFuncG type="discrete" tableValues="0 0"/><feFuncB type="discrete" tableValues="0 0"/><feFuncA type="linear" slope="0.380392" intercept="0"/></feComponentTransfer><feGaussianBlur stdDeviation="4.8119 4.8119"/></filter><filter id="fx4" x="-10%" y="-10%" width="120%" height="120%" filterUnits="userSpaceOnUse" primitiveUnits="userSpaceOnUse"><feComponentTransfer color-interpolation-filters="sRGB"><feFuncR type="discrete" tableValues="0 0"/><feFuncG type="discrete" tableValues="0 0"/><feFuncB type="discrete" tableValues="0 0"/><feFuncA type="linear" slope="0.380392" intercept="0"/></feComponentTransfer><feGaussianBlur stdDeviation="4.8119 4.8119"/></filter><filter id="fx5" x="-10%" y="-10%" width="120%" height="120%" filterUnits="userSpaceOnUse" primitiveUnits="userSpaceOnUse"><feComponentTransfer color-interpolation-filters="sRGB"><feFuncR type="discrete" tableValues="0 0"/><feFuncG type="discrete" tableValues="0 0"/><feFuncB type="discrete" tableValues="0 0"/><feFuncA type="linear" slope="0.380392" intercept="0"/></feComponentTransfer><feGaussianBlur stdDeviation="4.8119 4.8119"/></filter><filter id="fx6" x="-10%" y="-10%" width="120%" height="120%" filterUnits="userSpaceOnUse" primitiveUnits="userSpaceOnUse"><feComponentTransfer color-interpolation-filters="sRGB"><feFuncR type="discrete" tableValues="0 0"/><feFuncG type="discrete" tableValues="0 0"/><feFuncB type="discrete" tableValues="0 0"/><feFuncA type="linear" slope="0.380392" intercept="0"/></feComponentTransfer><feGaussianBlur stdDeviation="4.8119 4.8119"/></filter><filter id="fx7" x="-10%" y="-10%" width="120%" height="120%" filterUnits="userSpaceOnUse" primitiveUnits="userSpaceOnUse"><feComponentTransfer color-interpolation-filters="sRGB"><feFuncR type="discrete" tableValues="0 0"/><feFuncG type="discrete" tableValues="0 0"/><feFuncB type="discrete" tableValues="0 0"/><feFuncA type="linear" slope="0.380392" intercept="0"/></feComponentTransfer><feGaussianBlur stdDeviation="4.8119 4.8119"/></filter><clipPath id="clip8"><rect x="232" y="409" width="2948" height="950"/></clipPath><clipPath id="clip9"><path d="M248.5 440.5 248.5 605.5 1128.5 605.5 1128.5 440.5ZM232 409 3180 409 3180 1359 232 1359Z" fill-rule="evenodd" clip-rule="evenodd"/></clipPath><clipPath id="clip10"><rect x="49" y="43" width="454" height="109"/></clipPath><clipPath id="clip11"><path d="M248.5 798.5 248.5 963.5 1128.5 963.5 1128.5 798.5ZM232 409 3180 409 3180 1359 232 1359Z" fill-rule="evenodd" clip-rule="evenodd"/></clipPath><clipPath id="clip12"><rect x="52" y="43" width="491" height="109"/></clipPath><clipPath id="clip13"><path d="M248.5 1155.5 248.5 1320.5 1128.5 1320.5 1128.5 1155.5ZM232 409 3180 409 3180 1359 232 1359Z" fill-rule="evenodd" clip-rule="evenodd"/></clipPath><clipPath id="clip14"><rect x="52" y="46" width="433" height="94"/></clipPath><clipPath id="clip15"><path d="M2283.5 440.5 2283.5 1320.5 3163.5 1320.5 3163.5 440.5ZM232 409 3180 409 3180 1359 232 1359Z" fill-rule="evenodd" clip-rule="evenodd"/></clipPath><clipPath id="clip16"><rect x="52" y="43" width="342" height="109"/></clipPath></defs><g clip-path="url(#clip8)" transform="translate(-232 -409)"><g clip-path="url(#clip9)"><g filter="url(#fx0)" transform="translate(231 430)"><g><rect x="17.5" y="17.7177" width="880" height="165" stroke="#000000" stroke-width="3" stroke-linejoin="round" stroke-miterlimit="10" fill="#F2F2F2"/></g></g><g clip-path="url(#clip10)" filter="url(#fx1)" transform="translate(412 439)"><g><path d="M57.3462 4.62012C57.3462 5.24154 57.3124 5.76164 57.2449 6.18042 57.1773 6.5992 57.076 6.92342 56.9409 7.15308 56.8058 7.38273 56.6572 7.53808 56.4951 7.61914 56.333 7.70019 56.1709 7.74072 56.0088 7.74072 55.4684 7.74072 54.5971 7.51782 53.3948 7.07202 52.1925 6.62622 50.8078 5.97778 49.2407 5.12671 47.6737 4.27563 45.9985 3.24219 44.2153 2.02637 42.4321 0.810547 40.703-0.60791 39.0278-2.229 37.7039-1.41846 36.0288-0.715983 34.0024-0.121582 31.9761 0.472819 29.6255 0.770019 26.9507 0.770019 23.006 0.770019 19.595 0.189128 16.7175-0.972656 13.8401-2.13444 11.4625-3.83659 9.58472-6.0791 7.70695-8.32161 6.30876-11.1112 5.39014-14.448 4.47152-17.7847 4.01221-21.6146 4.01221-25.9375 4.01221-30.0983 4.51204-33.8606 5.51172-37.2244 6.51139-40.5881 8.0109-43.4521 10.0103-45.8162 12.0096-48.1803 14.5088-50.004 17.5078-51.2873 20.5068-52.5707 24.0057-53.2124 28.0044-53.2124 31.7599-53.2124 35.0629-52.6315 37.9133-51.4697 40.7637-50.3079 43.1549-48.6125 45.0867-46.3835 47.0185-44.1545 48.4707-41.4054 49.4434-38.1362 50.416-34.867 50.9023-31.1115 50.9023-26.8696 50.9023-24.6812 50.774-22.5872 50.5173-20.5879 50.2607-18.5885 49.8554-16.6973 49.3015-14.9141 48.7476-13.1309 48.0519-11.4827 47.2144-9.96973 46.3768-8.45671 45.3906-7.09228 44.2559-5.87646 46.2282-4.25537 47.9574-2.99227 49.4434-2.08716 50.9294-1.18205 52.1587-0.499837 53.1313-0.0405273 54.104 0.418782 54.8605 0.749756 55.4009 0.952393 55.9412 1.15503 56.3465 1.38468 56.6167 1.64136 56.8869 1.89803 57.076 2.26278 57.1841 2.7356 57.2921 3.20841 57.3462 3.83659 57.3462 4.62012ZM43.5669-26.3833C43.5669-29.3553 43.3035-32.1112 42.7766-34.6509 42.2497-37.1906 41.3717-39.3993 40.1423-41.2771 38.913-43.1549 37.2716-44.6206 35.2183-45.6743 33.1649-46.728 30.6252-47.2549 27.5991-47.2549 24.5731-47.2549 22.0334-46.6942 19.98-45.573 17.9266-44.4517 16.2582-42.9387 14.9749-41.0339 13.6915-39.1291 12.7729-36.9204 12.219-34.4077 11.6651-31.895 11.3882-29.2337 11.3882-26.4238 11.3882-23.3437 11.6449-20.5136 12.1582-17.9333 12.6715-15.3531 13.5361-13.1173 14.752-11.2261 15.9678-9.3348 17.5956-7.86906 19.6355-6.82886 21.6754-5.78865 24.2353-5.26855 27.3154-5.26855 30.3685-5.26855 32.9352-5.83594 35.0156-6.9707 37.096-8.10547 38.7712-9.63875 40.041-11.5706 41.3109-13.5024 42.216-15.7449 42.7563-18.2981 43.2967-20.8513 43.5669-23.5464 43.5669-26.3833ZM93.0202-1.01318C93.0202-0.797038 92.9729-0.614665 92.8783-0.466064 92.7838-0.317464 92.6149-0.189128 92.3717-0.0810547 92.1286 0.0270182 91.8111 0.108073 91.4193 0.162109 91.0276 0.216146 90.548 0.243164 89.9806 0.243164 89.3592 0.243164 88.8526 0.216146 88.4608 0.162109 88.0691 0.108073 87.7584 0.0270182 87.5287-0.0810547 87.2991-0.189128 87.1437-0.317464 87.0627-0.466064 86.9816-0.614665 86.9411-0.797038 86.9411-1.01318L86.9411-5.83594C84.8607-3.53939 82.8073-1.86426 80.7809-0.810547 78.7546 0.243164 76.7012 0.770019 74.6208 0.770019 72.1891 0.770019 70.1425 0.364746 68.4809-0.445801 66.8192-1.25635 65.4751-2.35734 64.4484-3.74878 63.4217-5.14022 62.6855-6.76131 62.2397-8.61206 61.7939-10.4628 61.571-12.7121 61.571-15.3599L61.571-37.4878C61.571-37.7039 61.6182-37.8863 61.7128-38.0349 61.8074-38.1835 61.9897-38.3186 62.2599-38.4402 62.5301-38.5618 62.8813-38.6428 63.3136-38.6833 63.7459-38.7239 64.2863-38.7441 64.9347-38.7441 65.5832-38.7441 66.1235-38.7239 66.5558-38.6833 66.9881-38.6428 67.3326-38.5618 67.5893-38.4402 67.8459-38.3186 68.0283-38.1835 68.1364-38.0349 68.2445-37.8863 68.2985-37.7039 68.2985-37.4878L68.2985-16.2515C68.2985-14.117 68.4538-12.4081 68.7646-11.1248 69.0753-9.84139 69.5481-8.74715 70.183-7.84204 70.8179-6.93693 71.6217-6.23446 72.5944-5.73462 73.5671-5.23478 74.7018-4.98486 75.9987-4.98486 77.6738-4.98486 79.3422-5.57926 81.0038-6.76807 82.6654-7.95687 84.4284-9.69954 86.2926-11.9961L86.2926-37.4878C86.2926-37.7039 86.3399-37.8863 86.4345-38.0349 86.5291-38.1835 86.7114-38.3186 86.9816-38.4402 87.2518-38.5618 87.5963-38.6428 88.015-38.6833 88.4338-38.7239 88.9809-38.7441 89.6564-38.7441 90.3048-38.7441 90.8452-38.7239 91.2775-38.6833 91.7098-38.6428 92.0475-38.5618 92.2907-38.4402 92.5338-38.3186 92.7162-38.1835 92.8378-38.0349 92.9594-37.8863 93.0202-37.7039 93.0202-37.4878ZM136.44-20.8311C136.44-19.7773 136.176-19.0276 135.646-18.5818 135.117-18.136 134.513-17.9131 133.834-17.9131L109.814-17.9131C109.814-15.8867 110.017-14.063 110.425-12.4419 110.832-10.8208 111.51-9.42936 112.461-8.26758 113.411-7.10579 114.646-6.21419 116.167-5.59277 117.687-4.97135 119.547-4.66064 121.746-4.66064 123.484-4.66064 125.031-4.80249 126.389-5.08618 127.746-5.36987 128.92-5.68734 129.911-6.03857 130.902-6.38981 131.717-6.70727 132.355-6.99097 132.993-7.27466 133.475-7.4165 133.801-7.4165 133.991-7.4165 134.16-7.36922 134.31-7.27466 134.459-7.18009 134.574-7.03825 134.656-6.84912 134.737-6.65999 134.798-6.39657 134.839-6.05884 134.88-5.72111 134.9-5.30908 134.9-4.82275 134.9-4.47152 134.887-4.16756 134.86-3.91089 134.833-3.65422 134.799-3.42456 134.758-3.22192 134.718-3.01929 134.65-2.83691 134.556-2.6748 134.461-2.5127 134.34-2.35734 134.191-2.20874 134.042-2.06014 133.603-1.81698 132.874-1.47925 132.144-1.14152 131.199-0.810547 130.037-0.486328 128.875-0.162109 127.531 0.128337 126.004 0.38501 124.478 0.641683 122.85 0.770019 121.121 0.770019 118.122 0.770019 115.494 0.351237 113.238-0.486328 110.982-1.32389 109.084-2.56673 107.544-4.21484 106.004-5.86296 104.842-7.92985 104.059-10.4155 103.275-12.9012 102.884-15.7922 102.884-19.0884 102.884-22.2225 103.289-25.0391 104.099-27.5383 104.91-30.0375 106.079-32.1584 107.605-33.9011 109.132-35.6438 110.976-36.9812 113.137-37.9133 115.298-38.8455 117.717-39.3115 120.391-39.3115 123.255-39.3115 125.694-38.8522 127.707-37.9336 129.719-37.015 131.374-35.7789 132.671-34.2253 133.968-32.6718 134.92-30.8481 135.528-28.7541 136.136-26.6602 136.44-24.4245 136.44-22.0469ZM129.713-22.8169C129.794-26.3293 129.012-29.0851 127.368-31.0845 125.724-33.0838 123.284-34.0835 120.049-34.0835 118.391-34.0835 116.936-33.7728 115.686-33.1514 114.435-32.5299 113.389-31.7059 112.546-30.6792 111.703-29.6525 111.051-28.4569 110.589-27.0925 110.127-25.7281 109.868-24.3029 109.814-22.8169ZM167.883-35.0967C167.883-34.5023 167.869-34.0024 167.842-33.5972 167.815-33.1919 167.761-32.8744 167.68-32.6448 167.599-32.4151 167.498-32.2395 167.376-32.1179 167.254-31.9963 167.086-31.9355 166.869-31.9355 166.653-31.9355 166.39-31.9963 166.079-32.1179 165.768-32.2395 165.417-32.3611 165.025-32.4827 164.634-32.6042 164.195-32.7191 163.708-32.8271 163.222-32.9352 162.695-32.9893 162.128-32.9893 161.452-32.9893 160.79-32.8542 160.142-32.584 159.493-32.3138 158.811-31.868 158.095-31.2466 157.379-30.6252 156.63-29.8011 155.846-28.7744 155.062-27.7477 154.198-26.4914 153.252-25.0054L153.252-1.01318C153.252-0.797038 153.198-0.614665 153.09-0.466064 152.982-0.317464 152.806-0.189128 152.563-0.0810547 152.32 0.0270182 151.982 0.108073 151.55 0.162109 151.118 0.216146 150.564 0.243164 149.889 0.243164 149.24 0.243164 148.7 0.216146 148.267 0.162109 147.835 0.108073 147.491 0.0270182 147.234-0.0810547 146.977-0.189128 146.802-0.317464 146.707-0.466064 146.613-0.614665 146.565-0.797038 146.565-1.01318L146.565-37.4878C146.565-37.7039 146.606-37.8863 146.687-38.0349 146.768-38.1835 146.93-38.3186 147.173-38.4402 147.416-38.5618 147.727-38.6428 148.105-38.6833 148.484-38.7239 148.983-38.7441 149.605-38.7441 150.199-38.7441 150.692-38.7239 151.084-38.6833 151.476-38.6428 151.78-38.5618 151.996-38.4402 152.212-38.3186 152.367-38.1835 152.462-38.0349 152.557-37.8863 152.604-37.7039 152.604-37.4878L152.604-32.1787C153.604-33.6377 154.542-34.8265 155.42-35.7451 156.299-36.6637 157.129-37.3865 157.913-37.9133 158.696-38.4402 159.473-38.8049 160.243-39.0076 161.013-39.2102 161.79-39.3115 162.574-39.3115 162.925-39.3115 163.323-39.2913 163.769-39.2507 164.215-39.2102 164.681-39.1359 165.167-39.0278 165.654-38.9198 166.093-38.7982 166.484-38.6631 166.876-38.528 167.153-38.3929 167.315-38.2578 167.477-38.1227 167.585-37.9944 167.639-37.8728 167.694-37.7512 167.741-37.5959 167.781-37.4067 167.822-37.2176 167.849-36.9407 167.862-36.5759 167.876-36.2112 167.883-35.7181 167.883-35.0967ZM192.24 0 187.377 13.4145C187.214 13.8468 186.802 14.1778 186.14 14.4075 185.478 14.6371 184.472 14.752 183.121 14.752 182.419 14.752 181.851 14.7182 181.419 14.6506 180.987 14.5831 180.656 14.4683 180.426 14.3062 180.196 14.144 180.068 13.9279 180.041 13.6577 180.014 13.3875 180.082 13.0633 180.244 12.6851L185.269 0C185.026-0.108073 184.796-0.283691 184.58-0.526855 184.364-0.770019 184.215-1.02669 184.134-1.29687L171.125-36.1504C170.909-36.7178 170.801-37.1636 170.801-37.4878 170.801-37.812 170.909-38.0687 171.125-38.2578 171.341-38.4469 171.692-38.5753 172.179-38.6428 172.665-38.7104 173.314-38.7441 174.124-38.7441 174.935-38.7441 175.57-38.7239 176.029-38.6833 176.488-38.6428 176.853-38.5685 177.123-38.4604 177.393-38.3524 177.589-38.197 177.711-37.9944 177.832-37.7917 177.961-37.5148 178.096-37.1636L188.511-7.90283 188.633-7.90283 198.684-37.3257C198.846-37.839 199.042-38.17 199.271-38.3186 199.501-38.4672 199.845-38.5753 200.305-38.6428 200.764-38.7104 201.426-38.7441 202.291-38.7441 203.047-38.7441 203.669-38.7104 204.155-38.6428 204.641-38.5753 204.999-38.4469 205.229-38.2578 205.458-38.0687 205.573-37.812 205.573-37.4878 205.573-37.1636 205.492-36.7583 205.33-36.272ZM267.555-7.4165C267.555-6.98421 267.542-6.60596 267.515-6.28174 267.487-5.95752 267.44-5.67383 267.373-5.43066 267.305-5.1875 267.217-4.97135 267.109-4.78223 267.001-4.5931 266.812-4.36344 266.542-4.09326 266.272-3.82308 265.704-3.41105 264.84-2.85718 263.975-2.3033 262.901-1.76294 261.618-1.23608 260.334-0.709228 258.862-0.263428 257.2 0.101318 255.539 0.466064 253.722 0.648437 251.749 0.648437 248.345 0.648437 245.272 0.0810547 242.529-1.05371 239.787-2.18848 237.45-3.86361 235.518-6.0791 233.586-8.2946 232.1-11.0302 231.06-14.2859 230.02-17.5416 229.5-21.2904 229.5-25.5322 229.5-29.8822 230.061-33.7593 231.182-37.1636 232.303-40.5679 233.877-43.4521 235.903-45.8162 237.93-48.1803 240.354-49.9837 243.178-51.2266 246.001-52.4694 249.129-53.0908 252.56-53.0908 254.073-53.0908 255.545-52.949 256.977-52.6653 258.409-52.3816 259.733-52.0236 260.949-51.5913 262.165-51.159 263.246-50.6592 264.191-50.0918 265.137-49.5244 265.792-49.0583 266.157-48.6936 266.522-48.3289 266.758-48.0519 266.866-47.8628 266.974-47.6737 267.062-47.4508 267.13-47.1941 267.197-46.9374 267.251-46.6335 267.292-46.2822 267.332-45.931 267.352-45.5122 267.352-45.0259 267.352-44.4855 267.325-44.0262 267.271-43.6479 267.217-43.2697 267.135-42.9522 267.027-42.6956 266.918-42.4389 266.789-42.2498 266.639-42.1282 266.49-42.0066 266.307-41.9458 266.089-41.9458 265.709-41.9458 265.18-42.2092 264.5-42.7361 263.821-43.2629 262.945-43.8438 261.872-44.4788 260.799-45.1137 259.495-45.6946 257.961-46.2214 256.426-46.7483 254.586-47.0117 252.44-47.0117 250.104-47.0117 247.978-46.5456 246.064-45.6135 244.149-44.6814 242.512-43.3102 241.154-41.5 239.796-39.6898 238.743-37.481 237.996-34.8738 237.249-32.2665 236.876-29.2878 236.876-25.9375 236.876-22.6143 237.236-19.676 237.956-17.1228 238.675-14.5696 239.707-12.4351 241.052-10.7195 242.397-9.00382 244.047-7.70695 246.002-6.82886 247.958-5.95076 250.172-5.51172 252.644-5.51172 254.735-5.51172 256.561-5.76839 258.123-6.28174 259.685-6.79508 261.016-7.36922 262.116-8.00415 263.216-8.63908 264.119-9.21321 264.825-9.72656 265.531-10.2399 266.088-10.4966 266.496-10.4966 266.686-10.4966 266.849-10.4561 266.985-10.375 267.121-10.2939 267.229-10.1386 267.311-9.90893 267.392-9.67928 267.453-9.36182 267.494-8.95654 267.535-8.55127 267.555-8.03792 267.555-7.4165ZM282.571-1.01318C282.571-0.797038 282.517-0.614665 282.409-0.466064 282.301-0.317464 282.125-0.189128 281.882-0.0810547 281.639 0.0270182 281.301 0.108073 280.869 0.162109 280.437 0.216146 279.883 0.243164 279.207 0.243164 278.559 0.243164 278.018 0.216146 277.586 0.162109 277.154 0.108073 276.809 0.0270182 276.553-0.0810547 276.296-0.189128 276.12-0.317464 276.026-0.466064 275.931-0.614665 275.884-0.797038 275.884-1.01318L275.884-55.1577C275.884-55.3739 275.931-55.563 276.026-55.7251 276.12-55.8872 276.296-56.0223 276.553-56.1304 276.809-56.2384 277.154-56.3195 277.586-56.3735 278.018-56.4276 278.559-56.4546 279.207-56.4546 279.883-56.4546 280.437-56.4276 280.869-56.3735 281.301-56.3195 281.639-56.2384 281.882-56.1304 282.125-56.0223 282.301-55.8872 282.409-55.7251 282.517-55.563 282.571-55.3739 282.571-55.1577ZM301.477-1.01318C301.477-0.797038 301.423-0.614665 301.315-0.466064 301.207-0.317464 301.031-0.189128 300.788-0.0810547 300.545 0.0270182 300.207 0.108073 299.775 0.162109 299.343 0.216146 298.789 0.243164 298.113 0.243164 297.465 0.243164 296.925 0.216146 296.492 0.162109 296.06 0.108073 295.716 0.0270182 295.459-0.0810547 295.202-0.189128 295.027-0.317464 294.932-0.466064 294.838-0.614665 294.79-0.797038 294.79-1.01318L294.79-37.4878C294.79-37.6769 294.838-37.8525 294.932-38.0146 295.027-38.1768 295.202-38.3118 295.459-38.4199 295.716-38.528 296.06-38.609 296.492-38.6631 296.925-38.7171 297.465-38.7441 298.113-38.7441 298.789-38.7441 299.343-38.7171 299.775-38.6631 300.207-38.609 300.545-38.528 300.788-38.4199 301.031-38.3118 301.207-38.1768 301.315-38.0146 301.423-37.8525 301.477-37.6769 301.477-37.4878ZM302.247-49.8081C302.247-48.241 301.95-47.1738 301.356-46.6064 300.761-46.0391 299.667-45.7554 298.073-45.7554 296.506-45.7554 295.432-46.0323 294.851-46.5862 294.27-47.1401 293.98-48.187 293.98-49.727 293.98-51.2941 294.277-52.3613 294.871-52.9287 295.466-53.4961 296.56-53.7798 298.154-53.7798 299.721-53.7798 300.795-53.5028 301.376-52.949 301.957-52.3951 302.247-51.3481 302.247-49.8081ZM344.822-20.8311C344.821-19.7773 344.557-19.0276 344.028-18.5818 343.499-18.136 342.895-17.9131 342.216-17.9131L318.195-17.9131C318.195-15.8867 318.399-14.063 318.806-12.4419 319.213-10.8208 319.892-9.42936 320.842-8.26758 321.792-7.10579 323.028-6.21419 324.548-5.59277 326.068-4.97135 327.928-4.66064 330.127-4.66064 331.865-4.66064 333.412-4.80249 334.77-5.08618 336.127-5.36987 337.301-5.68734 338.292-6.03857 339.284-6.38981 340.098-6.70727 340.736-6.99097 341.374-7.27466 341.856-7.4165 342.182-7.4165 342.372-7.4165 342.542-7.36922 342.691-7.27466 342.84-7.18009 342.956-7.03825 343.037-6.84912 343.118-6.65999 343.18-6.39657 343.22-6.05884 343.261-5.72111 343.281-5.30908 343.281-4.82275 343.281-4.47152 343.268-4.16756 343.241-3.91089 343.214-3.65422 343.18-3.42456 343.14-3.22192 343.099-3.01929 343.032-2.83691 342.937-2.6748 342.842-2.5127 342.721-2.35734 342.572-2.20874 342.424-2.06014 341.985-1.81698 341.255-1.47925 340.526-1.14152 339.58-0.810547 338.418-0.486328 337.256-0.162109 335.912 0.128337 334.386 0.38501 332.859 0.641683 331.231 0.770019 329.502 0.770019 326.503 0.770019 323.876 0.351237 321.62-0.486328 319.364-1.32389 317.466-2.56673 315.926-4.21484 314.385-5.86296 313.224-7.92985 312.44-10.4155 311.657-12.9012 311.265-15.7922 311.265-19.0884 311.265-22.2225 311.67-25.0391 312.481-27.5383 313.291-30.0375 314.46-32.1584 315.986-33.9011 317.513-35.6438 319.357-36.9812 321.518-37.9133 323.68-38.8455 326.098-39.3115 328.773-39.3115 331.637-39.3115 334.075-38.8522 336.088-37.9336 338.101-37.015 339.756-35.7789 341.052-34.2253 342.349-32.6718 343.302-30.8481 343.91-28.7541 344.518-26.6602 344.821-24.4245 344.822-22.0469ZM338.094-22.8169C338.175-26.3293 337.393-29.0851 335.749-31.0845 334.105-33.0838 331.665-34.0835 328.43-34.0835 326.772-34.0835 325.318-33.7728 324.067-33.1514 322.817-32.5299 321.77-31.7059 320.927-30.6792 320.084-29.6525 319.432-28.4569 318.97-27.0925 318.508-25.7281 318.25-24.3029 318.195-22.8169ZM386.355-1.01318C386.355-0.797038 386.301-0.614665 386.193-0.466064 386.085-0.317464 385.909-0.189128 385.666-0.0810547 385.423 0.0270182 385.085 0.108073 384.653 0.162109 384.221 0.216146 383.68 0.243164 383.032 0.243164 382.357 0.243164 381.803 0.216146 381.37 0.162109 380.938 0.108073 380.6 0.0270182 380.357-0.0810547 380.114-0.189128 379.938-0.317464 379.83-0.466064 379.722-0.614665 379.668-0.797038 379.668-1.01318L379.668-22.3711C379.668-24.4515 379.506-26.1266 379.182-27.3965 378.858-28.6663 378.385-29.7606 377.763-30.6792 377.142-31.5978 376.338-32.3003 375.352-32.7866 374.366-33.2729 373.224-33.5161 371.927-33.5161 370.252-33.5161 368.577-32.9217 366.902-31.7329 365.227-30.5441 363.471-28.8014 361.634-26.5049L361.634-1.01318C361.633-0.797038 361.579-0.614665 361.471-0.466064 361.363-0.317464 361.188-0.189128 360.945-0.0810547 360.701 0.0270182 360.364 0.108073 359.931 0.162109 359.499 0.216146 358.945 0.243164 358.27 0.243164 357.621 0.243164 357.081 0.216146 356.649 0.162109 356.216 0.108073 355.872 0.0270182 355.615-0.0810547 355.359-0.189128 355.183-0.317464 355.088-0.466064 354.994-0.614665 354.946-0.797038 354.947-1.01318L354.947-37.4878C354.946-37.7039 354.987-37.8863 355.068-38.0349 355.149-38.1835 355.311-38.3186 355.554-38.4402 355.798-38.5618 356.108-38.6428 356.487-38.6833 356.865-38.7239 357.365-38.7441 357.986-38.7441 358.58-38.7441 359.074-38.7239 359.465-38.6833 359.857-38.6428 360.161-38.5618 360.377-38.4402 360.593-38.3186 360.749-38.1835 360.843-38.0349 360.938-37.8863 360.985-37.7039 360.985-37.4878L360.985-32.665C363.038-34.9616 365.085-36.6435 367.125-37.7107 369.165-38.7779 371.225-39.3115 373.305-39.3115 375.737-39.3115 377.784-38.8995 379.445-38.0754 381.107-37.2514 382.451-36.1504 383.478-34.7725 384.504-33.3945 385.241-31.7802 385.686-29.9294 386.132-28.0787 386.355-25.8564 386.355-23.2627ZM416.699-3.68799C416.699-2.90446 416.645-2.28304 416.537-1.82373 416.429-1.36442 416.266-1.02669 416.05-0.810547 415.834-0.594401 415.51-0.391764 415.078-0.202637 414.645-0.0135091 414.152 0.141846 413.598 0.263428 413.044 0.38501 412.457 0.486328 411.835 0.567383 411.214 0.648437 410.593 0.688965 409.971 0.688965 408.08 0.688965 406.459 0.439046 405.108-0.060791 403.757-0.560628 402.649-1.31714 401.785-2.33032 400.92-3.34351 400.292-4.62687 399.9-6.18042 399.508-7.73397 399.312-9.56445 399.312-11.6719L399.312-32.9893 394.206-32.9893C393.801-32.9893 393.477-33.2054 393.233-33.6377 392.99-34.07 392.869-34.7725 392.869-35.7451 392.869-36.2585 392.902-36.6908 392.97-37.042 393.038-37.3932 393.125-37.6837 393.233-37.9133 393.341-38.143 393.483-38.3051 393.659-38.3997 393.835-38.4942 394.03-38.5415 394.247-38.5415L399.312-38.5415 399.312-47.2144C399.312-47.4035 399.36-47.5791 399.454-47.7412 399.549-47.9033 399.724-48.0452 399.981-48.1667 400.238-48.2883 400.582-48.3761 401.015-48.4302 401.447-48.4842 401.987-48.5112 402.636-48.5112 403.311-48.5112 403.865-48.4842 404.297-48.4302 404.73-48.3761 405.067-48.2883 405.311-48.1667 405.554-48.0452 405.729-47.9033 405.837-47.7412 405.945-47.5791 406-47.4035 406-47.2144L406-38.5415 415.361-38.5415C415.577-38.5415 415.767-38.4942 415.929-38.3997 416.091-38.3051 416.233-38.143 416.354-37.9133 416.476-37.6837 416.564-37.3932 416.618-37.042 416.672-36.6908 416.699-36.2585 416.699-35.7451 416.699-34.7725 416.577-34.07 416.334-33.6377 416.091-33.2054 415.767-32.9893 415.361-32.9893L406-32.9893 406-12.6445C406-10.1318 406.371-8.2338 407.114-6.95044 407.857-5.66707 409.188-5.02539 411.106-5.02539 411.727-5.02539 412.281-5.08618 412.768-5.20776 413.254-5.32934 413.686-5.45768 414.064-5.59277 414.443-5.72786 414.767-5.8562 415.037-5.97778 415.307-6.09936 415.55-6.16016 415.767-6.16016 415.902-6.16016 416.03-6.12638 416.152-6.05884 416.273-5.99129 416.368-5.86296 416.435-5.67383 416.503-5.4847 416.564-5.22803 416.618-4.90381 416.672-4.57959 416.699-4.17432 416.699-3.68799Z" transform="matrix(1 0 0 1 65.9843 118)"/></g></g></g><rect x="248.5" y="440.5" width="880" height="165" stroke="#000000" stroke-width="3.4375" stroke-linejoin="round" stroke-miterlimit="10" fill="#F2F2F2"/><text font-family="Calibri,Calibri_MSFontService,sans-serif" font-weight="400" font-size="83" transform="matrix(1 0 0 1 407.984 550)">Query Client</text><g clip-path="url(#clip11)"><g filter="url(#fx2)" transform="translate(231 788)"><g><rect x="17.5" y="17.7179" width="880" height="165" stroke="#000000" stroke-width="3" stroke-linejoin="round" stroke-miterlimit="10" fill="#F2F2F2"/></g></g><g clip-path="url(#clip12)" filter="url(#fx3)" transform="translate(393 797)"><g><path d="M46.4038-19.3721C46.4038-16.1839 45.9377-13.3403 45.0056-10.8411 44.0735-8.34188 42.7428-6.2277 41.0137-4.49853 39.2845-2.76937 37.1771-1.45898 34.6914-0.567383 32.2057 0.324219 29.3823 0.770019 26.2212 0.770019 23.3302 0.770019 20.696 0.351237 18.3184-0.486328 15.9408-1.32389 13.9009-2.55998 12.1987-4.19458 10.4966-5.82918 9.1862-7.87581 8.26758-10.3345 7.34896-12.7931 6.88965-15.63 6.88965-18.8452L6.88965-51.3887C6.88965-51.6048 6.94368-51.7939 7.05176-51.9561 7.15983-52.1182 7.34896-52.2465 7.61914-52.3411 7.88932-52.4356 8.24056-52.5167 8.67285-52.5842 9.10514-52.6518 9.67253-52.6855 10.375-52.6855 11.0234-52.6855 11.5773-52.6518 12.0366-52.5842 12.4959-52.5167 12.8539-52.4356 13.1106-52.3411 13.3673-52.2465 13.5496-52.1182 13.6577-51.9561 13.7658-51.7939 13.8198-51.6048 13.8198-51.3887L13.8198-19.6963C13.8198-17.2646 14.117-15.1437 14.7114-13.3335 15.3058-11.5233 16.1637-10.017 17.2849-8.8147 18.4062-7.61238 19.7571-6.70727 21.3376-6.09936 22.9182-5.49145 24.6947-5.1875 26.667-5.1875 28.6934-5.1875 30.4968-5.4847 32.0774-6.0791 33.658-6.6735 34.9954-7.5651 36.0896-8.75391 37.1838-9.94271 38.0214-11.4152 38.6023-13.1714 39.1832-14.9276 39.4736-16.981 39.4736-19.3315L39.4736-51.3887C39.4736-51.6048 39.5277-51.7939 39.6357-51.9561 39.7438-52.1182 39.9329-52.2465 40.2031-52.3411 40.4733-52.4356 40.8313-52.5167 41.2771-52.5842 41.7229-52.6518 42.2835-52.6855 42.959-52.6855 43.6074-52.6855 44.1545-52.6518 44.6003-52.5842 45.0461-52.5167 45.3974-52.4356 45.654-52.3411 45.9107-52.2465 46.0998-52.1182 46.2214-51.9561 46.343-51.7939 46.4038-51.6048 46.4038-51.3887ZM92.4657-19.8179C92.4657-16.6297 92.1212-13.7658 91.4322-11.2261 90.7432-8.68636 89.7301-6.53166 88.3927-4.76196 87.0553-2.99227 85.4004-1.62785 83.4281-0.668701 81.4557 0.290446 79.1997 0.770019 76.66 0.770019 75.5793 0.770019 74.5796 0.661947 73.661 0.445801 72.7423 0.229655 71.844-0.108073 70.9659-0.567383 70.0878-1.02669 69.2165-1.60758 68.3519-2.31006 67.4873-3.01253 66.5687-3.83659 65.596-4.78223L65.596 13.4551C65.596 13.6712 65.542 13.8603 65.4339 14.0225 65.3258 14.1846 65.1502 14.3197 64.9071 14.4277 64.6639 14.5358 64.3262 14.6169 63.8939 14.6709 63.4616 14.7249 62.9077 14.752 62.2323 14.752 61.5838 14.752 61.0435 14.7249 60.6112 14.6709 60.1789 14.6169 59.8344 14.5358 59.5777 14.4277 59.321 14.3197 59.1454 14.1846 59.0509 14.0225 58.9563 13.8603 58.909 13.6712 58.909 13.4551L58.909-37.4878C58.909-37.7309 58.9495-37.9268 59.0306-38.0754 59.1116-38.224 59.2738-38.3524 59.5169-38.4604 59.7601-38.5685 60.0708-38.6428 60.4491-38.6833 60.8273-38.7239 61.2866-38.7441 61.827-38.7441 62.3944-38.7441 62.8604-38.7239 63.2252-38.6833 63.5899-38.6428 63.8939-38.5685 64.137-38.4604 64.3802-38.3524 64.5491-38.224 64.6436-38.0754 64.7382-37.9268 64.7855-37.7309 64.7855-37.4878L64.7855-32.584C65.8932-33.7187 66.9604-34.7049 67.9871-35.5425 69.0138-36.38 70.0473-37.0758 71.0875-37.6296 72.1277-38.1835 73.1949-38.6023 74.2891-38.886 75.3834-39.1697 76.5384-39.3115 77.7542-39.3115 80.402-39.3115 82.658-38.7982 84.5223-37.7715 86.3866-36.7448 87.9063-35.3398 89.0816-33.5566 90.2569-31.7734 91.1147-29.6998 91.6551-27.3357 92.1955-24.9716 92.4657-22.4657 92.4657-19.8179ZM85.5355-19.0478C85.5355-20.9121 85.3928-22.7156 85.1074-24.4583 84.822-26.2009 84.3327-27.7477 83.6396-29.0986 82.9464-30.4495 82.0153-31.5303 80.8463-32.3408 79.6774-33.1514 78.223-33.5566 76.4833-33.5566 75.6132-33.5566 74.7569-33.4283 73.9143-33.1716 73.0716-32.915 72.2154-32.5097 71.3455-31.9558 70.4757-31.4019 69.565-30.6724 68.6134-29.7673 67.6619-28.8622 66.6561-27.7477 65.596-26.4238L65.596-11.915C67.4447-9.67252 69.1981-7.95687 70.8563-6.76807 72.5146-5.57926 74.2543-4.98486 76.0755-4.98486 77.7608-4.98486 79.2083-5.39014 80.418-6.20068 81.6276-7.01123 82.6063-8.09196 83.354-9.44287 84.1016-10.7938 84.6521-12.3068 85.0055-13.9819 85.3588-15.6571 85.5355-17.3457 85.5355-19.0478ZM133.697-1.01318C133.697-0.797038 133.65-0.60791 133.555-0.445801 133.461-0.283691 133.299-0.155355 133.069-0.060791 132.839 0.0337728 132.535 0.108073 132.157 0.162109 131.779 0.216146 131.32 0.243164 130.779 0.243164 130.212 0.243164 129.739 0.216146 129.361 0.162109 128.983 0.108073 128.672 0.0337728 128.429-0.060791 128.186-0.155355 128.01-0.283691 127.902-0.445801 127.794-0.60791 127.74-0.797038 127.74-1.01318L127.74-5.83594C125.821-3.75553 123.829-2.13444 121.762-0.972656 119.695 0.189128 117.432 0.770019 114.974 0.770019 112.299 0.770019 110.016 0.249919 108.125-0.790283 106.233-1.83048 104.7-3.23543 103.525-5.00513 102.349-6.77482 101.492-8.85522 100.951-11.2463 100.411-13.6375 100.141-16.1569 100.141-18.8047 100.141-21.9388 100.478-24.769 101.154-27.2952 101.829-29.8214 102.829-31.9761 104.153-33.7593 105.477-35.5425 107.118-36.9137 109.077-37.8728 111.036-38.8319 113.298-39.3115 115.865-39.3115 118-39.3115 119.952-38.8455 121.721-37.9133 123.491-36.9812 125.241-35.61 126.97-33.7998L126.97-54.9956C126.97-55.1847 127.017-55.3671 127.112-55.5427 127.206-55.7183 127.389-55.8534 127.659-55.948 127.929-56.0426 128.273-56.1236 128.692-56.1912 129.111-56.2587 129.645-56.2925 130.293-56.2925 130.968-56.2925 131.522-56.2587 131.955-56.1912 132.387-56.1236 132.725-56.0426 132.968-55.948 133.211-55.8534 133.393-55.7183 133.515-55.5427 133.636-55.3671 133.697-55.1847 133.697-54.9956ZM126.97-26.667C125.16-28.9095 123.41-30.6184 121.721-31.7937 120.033-32.969 118.27-33.5566 116.433-33.5566 114.73-33.5566 113.285-33.1514 112.096-32.3408 110.907-31.5303 109.941-30.463 109.198-29.1392 108.455-27.8153 107.915-26.3158 107.577-24.6406 107.24-22.9655 107.071-21.2633 107.071-19.5342 107.071-17.6969 107.213-15.9002 107.496-14.144 107.78-12.3879 108.273-10.8276 108.976-9.46313 109.678-8.09871 110.61-7.00448 111.772-6.18042 112.934-5.35636 114.393-4.94433 116.149-4.94434 117.041-4.94433 117.898-5.06592 118.722-5.30908 119.546-5.55225 120.391-5.95752 121.255-6.5249 122.12-7.09228 123.025-7.82853 123.971-8.73364 124.916-9.63875 125.916-10.7533 126.97-12.0771ZM173.47-0.972656C173.47-0.648437 173.362-0.405273 173.146-0.243164 172.93-0.0810547 172.632 0.0405273 172.254 0.121582 171.876 0.202637 171.322 0.243164 170.592 0.243164 169.89 0.243164 169.329 0.202637 168.911 0.121582 168.492 0.0405273 168.188-0.0810547 167.999-0.243164 167.81-0.405273 167.715-0.648437 167.715-0.972656L167.715-4.62012C166.121-2.91797 164.344-1.59408 162.386-0.648437 160.427 0.2972 158.353 0.770019 156.165 0.770019 154.246 0.770019 152.51 0.520101 150.957 0.0202637 149.403-0.479574 148.079-1.20231 146.985-2.14795 145.891-3.09359 145.04-4.25537 144.432-5.6333 143.824-7.01123 143.52-8.57829 143.52-10.3345 143.52-12.3879 143.939-14.1711 144.777-15.6841 145.614-17.1971 146.816-18.4534 148.383-19.4531 149.951-20.4528 151.869-21.2026 154.138-21.7024 156.408-22.2022 158.961-22.4521 161.798-22.4521L166.823-22.4521 166.823-25.2891C166.823-26.694 166.675-27.9368 166.378-29.0176 166.08-30.0983 165.601-30.9967 164.939-31.7126 164.277-32.4286 163.419-32.969 162.365-33.3337 161.312-33.6985 160.015-33.8809 158.475-33.8809 156.827-33.8809 155.347-33.685 154.037-33.2932 152.727-32.9014 151.578-32.4692 150.592-31.9963 149.606-31.5235 148.782-31.0912 148.12-30.6995 147.458-30.3077 146.965-30.1118 146.641-30.1118 146.425-30.1118 146.236-30.1658 146.073-30.2739 145.911-30.382 145.769-30.5441 145.648-30.7603 145.526-30.9764 145.438-31.2533 145.384-31.5911 145.33-31.9288 145.303-32.3003 145.303-32.7056 145.303-33.381 145.351-33.9146 145.445-34.3064 145.54-34.6982 145.769-35.0697 146.134-35.4209 146.499-35.7721 147.127-36.1842 148.019-36.657 148.91-37.1298 149.937-37.5621 151.099-37.9539 152.261-38.3456 153.53-38.6698 154.908-38.9265 156.286-39.1832 157.678-39.3115 159.083-39.3115 161.703-39.3115 163.932-39.0143 165.77-38.4199 167.607-37.8255 169.093-36.9542 170.228-35.8059 171.362-34.6576 172.187-33.2324 172.7-31.5303 173.213-29.8281 173.47-27.8423 173.47-25.5728ZM166.823-17.6294 161.109-17.6294C159.272-17.6294 157.678-17.474 156.327-17.1633 154.976-16.8526 153.855-16.3933 152.963-15.7854 152.071-15.1775 151.416-14.448 150.997-13.5969 150.579-12.7458 150.369-11.7664 150.369-10.6587 150.369-8.76741 150.97-7.26115 152.173-6.13989 153.375-5.01864 155.057-4.45801 157.218-4.45801 158.975-4.45801 160.602-4.90381 162.102-5.79541 163.601-6.68701 165.175-8.05143 166.823-9.88867ZM203.734-3.68799C203.734-2.90446 203.68-2.28304 203.572-1.82373 203.464-1.36442 203.302-1.02669 203.086-0.810547 202.87-0.594401 202.545-0.391764 202.113-0.202637 201.681-0.0135091 201.188 0.141846 200.634 0.263428 200.08 0.38501 199.492 0.486328 198.871 0.567383 198.249 0.648437 197.628 0.688965 197.007 0.688965 195.115 0.688965 193.494 0.439046 192.143-0.060791 190.792-0.560628 189.685-1.31714 188.82-2.33032 187.955-3.34351 187.327-4.62687 186.936-6.18042 186.544-7.73397 186.348-9.56445 186.348-11.6719L186.348-32.9893 181.241-32.9893C180.836-32.9893 180.512-33.2054 180.269-33.6377 180.026-34.07 179.904-34.7725 179.904-35.7451 179.904-36.2585 179.938-36.6908 180.005-37.042 180.073-37.3932 180.161-37.6837 180.269-37.9133 180.377-38.143 180.519-38.3051 180.694-38.3997 180.87-38.4942 181.066-38.5415 181.282-38.5415L186.348-38.5415 186.348-47.2144C186.348-47.4035 186.395-47.5791 186.49-47.7412 186.584-47.9033 186.76-48.0452 187.017-48.1667 187.273-48.2883 187.618-48.3761 188.05-48.4302 188.482-48.4842 189.023-48.5112 189.671-48.5112 190.347-48.5112 190.9-48.4842 191.333-48.4302 191.765-48.3761 192.103-48.2883 192.346-48.1667 192.589-48.0452 192.765-47.9033 192.873-47.7412 192.981-47.5791 193.035-47.4035 193.035-47.2144L193.035-38.5415 202.397-38.5415C202.613-38.5415 202.802-38.4942 202.964-38.3997 203.126-38.3051 203.268-38.143 203.39-37.9133 203.511-37.6837 203.599-37.3932 203.653-37.042 203.707-36.6908 203.734-36.2585 203.734-35.7451 203.734-34.7725 203.613-34.07 203.369-33.6377 203.126-33.2054 202.802-32.9893 202.397-32.9893L193.035-32.9893 193.035-12.6445C193.035-10.1318 193.406-8.2338 194.149-6.95044 194.892-5.66707 196.223-5.02539 198.141-5.02539 198.763-5.02539 199.317-5.08618 199.803-5.20776 200.289-5.32934 200.722-5.45768 201.1-5.59277 201.478-5.72786 201.802-5.8562 202.073-5.97778 202.343-6.09936 202.586-6.16016 202.802-6.16016 202.937-6.16016 203.065-6.12638 203.187-6.05884 203.309-5.99129 203.403-5.86296 203.471-5.67383 203.538-5.4847 203.599-5.22803 203.653-4.90381 203.707-4.57959 203.734-4.17432 203.734-3.68799ZM242.499-20.8311C242.499-19.7773 242.234-19.0276 241.705-18.5818 241.176-18.136 240.572-17.9131 239.893-17.9131L215.872-17.9131C215.872-15.8867 216.076-14.063 216.483-12.4419 216.89-10.8208 217.569-9.42936 218.519-8.26758 219.469-7.10579 220.705-6.21419 222.225-5.59277 223.745-4.97135 225.605-4.66064 227.804-4.66064 229.542-4.66064 231.089-4.80249 232.447-5.08618 233.804-5.36987 234.979-5.68734 235.97-6.03857 236.961-6.38981 237.775-6.70727 238.413-6.99097 239.051-7.27466 239.533-7.4165 239.859-7.4165 240.049-7.4165 240.219-7.36922 240.368-7.27466 240.517-7.18009 240.633-7.03825 240.714-6.84912 240.796-6.65999 240.857-6.39657 240.897-6.05884 240.938-5.72111 240.959-5.30908 240.959-4.82275 240.959-4.47152 240.945-4.16756 240.918-3.91089 240.891-3.65422 240.857-3.42456 240.817-3.22192 240.776-3.01929 240.709-2.83691 240.614-2.6748 240.52-2.5127 240.398-2.35734 240.249-2.20874 240.101-2.06014 239.662-1.81698 238.932-1.47925 238.203-1.14152 237.257-0.810547 236.095-0.486328 234.933-0.162109 233.589 0.128337 232.063 0.38501 230.536 0.641683 228.908 0.770019 227.179 0.770019 224.18 0.770019 221.553 0.351237 219.297-0.486328 217.041-1.32389 215.143-2.56673 213.603-4.21484 212.063-5.86296 210.901-7.92985 210.117-10.4155 209.334-12.9012 208.942-15.7922 208.942-19.0884 208.942-22.2225 209.347-25.0391 210.158-27.5383 210.968-30.0375 212.137-32.1584 213.663-33.9011 215.19-35.6438 217.034-36.9812 219.195-37.9133 221.357-38.8455 223.775-39.3115 226.45-39.3115 229.314-39.3115 231.752-38.8522 233.765-37.9336 235.778-37.015 237.433-35.7789 238.73-34.2253 240.026-32.6718 240.979-30.8481 241.587-28.7541 242.195-26.6602 242.499-24.4245 242.499-22.0469ZM235.771-22.8169C235.852-26.3293 235.07-29.0851 233.426-31.0845 231.782-33.0838 229.342-34.0835 226.107-34.0835 224.449-34.0835 222.995-33.7728 221.744-33.1514 220.494-32.5299 219.447-31.7059 218.604-30.6792 217.761-29.6525 217.109-28.4569 216.647-27.0925 216.185-25.7281 215.927-24.3029 215.872-22.8169ZM307.315-7.4165C307.315-6.98421 307.302-6.60596 307.275-6.28174 307.248-5.95752 307.201-5.67383 307.133-5.43066 307.066-5.1875 306.978-4.97135 306.87-4.78223 306.762-4.5931 306.572-4.36344 306.302-4.09326 306.032-3.82308 305.465-3.41105 304.6-2.85718 303.736-2.3033 302.662-1.76294 301.378-1.23608 300.095-0.709228 298.622-0.263428 296.961 0.101318 295.299 0.466064 293.482 0.648437 291.51 0.648437 288.105 0.648437 285.032 0.0810547 282.29-1.05371 279.547-2.18848 277.21-3.86361 275.279-6.0791 273.347-8.2946 271.861-11.0302 270.821-14.2859 269.78-17.5416 269.26-21.2904 269.26-25.5322 269.26-29.8822 269.821-33.7593 270.942-37.1636 272.063-40.5679 273.637-43.4521 275.664-45.8162 277.69-48.1803 280.115-49.9837 282.938-51.2266 285.762-52.4694 288.889-53.0908 292.32-53.0908 293.833-53.0908 295.306-52.949 296.738-52.6653 298.17-52.3816 299.494-52.0236 300.71-51.5913 301.925-51.159 303.006-50.6592 303.952-50.0918 304.897-49.5244 305.553-49.0583 305.917-48.6936 306.282-48.3289 306.518-48.0519 306.626-47.8628 306.735-47.6737 306.822-47.4508 306.89-47.1941 306.957-46.9374 307.011-46.6335 307.052-46.2822 307.093-45.931 307.113-45.5122 307.113-45.0259 307.113-44.4855 307.086-44.0262 307.031-43.6479 306.977-43.2697 306.896-42.9522 306.787-42.6956 306.678-42.4389 306.549-42.2498 306.4-42.1282 306.25-42.0066 306.067-41.9458 305.85-41.9458 305.47-41.9458 304.94-42.2092 304.261-42.7361 303.581-43.2629 302.705-43.8438 301.632-44.4788 300.56-45.1137 299.256-45.6946 297.721-46.2214 296.187-46.7483 294.346-47.0117 292.201-47.0117 289.864-47.0117 287.739-46.5456 285.824-45.6135 283.909-44.6814 282.273-43.3102 280.914-41.5 279.556-39.6898 278.504-37.481 277.757-34.8738 277.01-32.2665 276.636-29.2878 276.636-25.9375 276.636-22.6143 276.996-19.676 277.716-17.1228 278.436-14.5696 279.468-12.4351 280.812-10.7195 282.157-9.00382 283.807-7.70695 285.763-6.82886 287.718-5.95076 289.932-5.51172 292.404-5.51172 294.495-5.51172 296.322-5.76839 297.884-6.28174 299.445-6.79508 300.776-7.36922 301.876-8.00415 302.976-8.63908 303.879-9.21321 304.586-9.72656 305.292-10.2399 305.849-10.4966 306.256-10.4966 306.446-10.4966 306.609-10.4561 306.745-10.375 306.881-10.2939 306.99-10.1386 307.071-9.90893 307.152-9.67928 307.214-9.36182 307.254-8.95654 307.295-8.55127 307.315-8.03792 307.315-7.4165ZM322.331-1.01318C322.331-0.797038 322.277-0.614665 322.169-0.466064 322.061-0.317464 321.886-0.189128 321.642-0.0810547 321.399 0.0270182 321.062 0.108073 320.629 0.162109 320.197 0.216146 319.643 0.243164 318.968 0.243164 318.319 0.243164 317.779 0.216146 317.347 0.162109 316.914 0.108073 316.57 0.0270182 316.313-0.0810547 316.056-0.189128 315.881-0.317464 315.786-0.466064 315.692-0.614665 315.644-0.797038 315.644-1.01318L315.644-55.1577C315.644-55.3739 315.692-55.563 315.786-55.7251 315.881-55.8872 316.056-56.0223 316.313-56.1304 316.57-56.2384 316.914-56.3195 317.347-56.3735 317.779-56.4276 318.319-56.4546 318.968-56.4546 319.643-56.4546 320.197-56.4276 320.629-56.3735 321.062-56.3195 321.399-56.2384 321.642-56.1304 321.886-56.0223 322.061-55.8872 322.169-55.7251 322.277-55.563 322.331-55.3739 322.331-55.1577ZM341.238-1.01318C341.238-0.797038 341.184-0.614665 341.076-0.466064 340.967-0.317464 340.792-0.189128 340.549-0.0810547 340.306 0.0270182 339.968 0.108073 339.536 0.162109 339.103 0.216146 338.549 0.243164 337.874 0.243164 337.225 0.243164 336.685 0.216146 336.253 0.162109 335.82 0.108073 335.476 0.0270182 335.219-0.0810547 334.963-0.189128 334.787-0.317464 334.693-0.466064 334.598-0.614665 334.551-0.797038 334.551-1.01318L334.551-37.4878C334.551-37.6769 334.598-37.8525 334.693-38.0146 334.787-38.1768 334.963-38.3118 335.219-38.4199 335.476-38.528 335.82-38.609 336.253-38.6631 336.685-38.7171 337.225-38.7441 337.874-38.7441 338.549-38.7441 339.103-38.7171 339.536-38.6631 339.968-38.609 340.306-38.528 340.549-38.4199 340.792-38.3118 340.967-38.1768 341.076-38.0146 341.184-37.8525 341.238-37.6769 341.238-37.4878ZM342.008-49.8081C342.008-48.241 341.71-47.1738 341.116-46.6064 340.522-46.0391 339.427-45.7554 337.833-45.7554 336.266-45.7554 335.192-46.0323 334.611-46.5862 334.031-47.1401 333.74-48.187 333.74-49.727 333.74-51.2941 334.037-52.3613 334.632-52.9287 335.226-53.4961 336.32-53.7798 337.914-53.7798 339.481-53.7798 340.555-53.5028 341.136-52.949 341.717-52.3951 342.008-51.3481 342.008-49.8081ZM384.582-20.8311C384.582-19.7773 384.317-19.0276 383.788-18.5818 383.259-18.136 382.655-17.9131 381.976-17.9131L357.955-17.9131C357.955-15.8867 358.159-14.063 358.566-12.4419 358.973-10.8208 359.652-9.42936 360.602-8.26758 361.553-7.10579 362.788-6.21419 364.308-5.59277 365.829-4.97135 367.689-4.66064 369.888-4.66064 371.625-4.66064 373.173-4.80249 374.53-5.08618 375.888-5.36987 377.062-5.68734 378.053-6.03857 379.044-6.38981 379.858-6.70727 380.497-6.99097 381.135-7.27466 381.617-7.4165 381.943-7.4165 382.133-7.4165 382.302-7.36922 382.451-7.27466 382.601-7.18009 382.716-7.03825 382.797-6.84912 382.879-6.65999 382.94-6.39657 382.981-6.05884 383.021-5.72111 383.042-5.30908 383.042-4.82275 383.042-4.47152 383.028-4.16756 383.001-3.91089 382.974-3.65422 382.941-3.42456 382.9-3.22192 382.859-3.01929 382.792-2.83691 382.697-2.6748 382.603-2.5127 382.481-2.35734 382.333-2.20874 382.184-2.06014 381.745-1.81698 381.016-1.47925 380.286-1.14152 379.34-0.810547 378.179-0.486328 377.017-0.162109 375.673 0.128337 374.146 0.38501 372.62 0.641683 370.992 0.770019 369.263 0.770019 366.264 0.770019 363.636 0.351237 361.38-0.486328 359.124-1.32389 357.226-2.56673 355.686-4.21484 354.146-5.86296 352.984-7.92985 352.201-10.4155 351.417-12.9012 351.025-15.7922 351.025-19.0884 351.025-22.2225 351.431-25.0391 352.241-27.5383 353.052-30.0375 354.22-32.1584 355.747-33.9011 357.273-35.6438 359.117-36.9812 361.279-37.9133 363.44-38.8455 365.858-39.3115 368.533-39.3115 371.397-39.3115 373.835-38.8522 375.848-37.9336 377.861-37.015 379.516-35.7789 380.813-34.2253 382.11-32.6718 383.062-30.8481 383.67-28.7541 384.278-26.6602 384.582-24.4245 384.582-22.0469ZM377.854-22.8169C377.935-26.3293 377.154-29.0851 375.509-31.0845 373.865-33.0838 371.425-34.0835 368.19-34.0835 366.532-34.0835 365.078-33.7728 363.827-33.1514 362.577-32.5299 361.53-31.7059 360.688-30.6792 359.845-29.6525 359.192-28.4569 358.73-27.0925 358.268-25.7281 358.01-24.3029 357.955-22.8169ZM426.116-1.01318C426.116-0.797038 426.062-0.614665 425.953-0.466064 425.845-0.317464 425.67-0.189128 425.427-0.0810547 425.183 0.0270182 424.846 0.108073 424.413 0.162109 423.981 0.216146 423.441 0.243164 422.792 0.243164 422.117 0.243164 421.563 0.216146 421.131 0.162109 420.698 0.108073 420.361 0.0270182 420.118-0.0810547 419.874-0.189128 419.699-0.317464 419.591-0.466064 419.483-0.614665 419.429-0.797038 419.429-1.01318L419.429-22.3711C419.429-24.4515 419.266-26.1266 418.942-27.3965 418.618-28.6663 418.145-29.7606 417.524-30.6792 416.902-31.5978 416.099-32.3003 415.112-32.7866 414.126-33.2729 412.985-33.5161 411.688-33.5161 410.013-33.5161 408.338-32.9217 406.662-31.7329 404.987-30.5441 403.231-28.8014 401.394-26.5049L401.394-1.01318C401.394-0.797038 401.34-0.614665 401.232-0.466064 401.124-0.317464 400.948-0.189128 400.705-0.0810547 400.462 0.0270182 400.124 0.108073 399.692 0.162109 399.259 0.216146 398.706 0.243164 398.03 0.243164 397.382 0.243164 396.841 0.216146 396.409 0.162109 395.977 0.108073 395.632 0.0270182 395.376-0.0810547 395.119-0.189128 394.943-0.317464 394.849-0.466064 394.754-0.614665 394.707-0.797038 394.707-1.01318L394.707-37.4878C394.707-37.7039 394.747-37.8863 394.828-38.0349 394.91-38.1835 395.072-38.3186 395.315-38.4402 395.558-38.5618 395.869-38.6428 396.247-38.6833 396.625-38.7239 397.125-38.7441 397.746-38.7441 398.341-38.7441 398.834-38.7239 399.226-38.6833 399.617-38.6428 399.921-38.5618 400.138-38.4402 400.354-38.3186 400.509-38.1835 400.604-38.0349 400.698-37.8863 400.745-37.7039 400.745-37.4878L400.745-32.665C402.799-34.9616 404.845-36.6435 406.885-37.7107 408.925-38.7779 410.985-39.3115 413.066-39.3115 415.497-39.3115 417.544-38.8995 419.206-38.0754 420.867-37.2514 422.211-36.1504 423.238-34.7725 424.265-33.3945 425.001-31.7802 425.447-29.9294 425.893-28.0787 426.116-25.8564 426.116-23.2627ZM456.459-3.68799C456.459-2.90446 456.405-2.28304 456.297-1.82373 456.189-1.36442 456.027-1.02669 455.811-0.810547 455.595-0.594401 455.27-0.391764 454.838-0.202637 454.406-0.0135091 453.913 0.141846 453.359 0.263428 452.805 0.38501 452.217 0.486328 451.596 0.567383 450.974 0.648437 450.353 0.688965 449.732 0.688965 447.84 0.688965 446.219 0.439046 444.868-0.060791 443.517-0.560628 442.41-1.31714 441.545-2.33032 440.68-3.34351 440.052-4.62687 439.661-6.18042 439.269-7.73397 439.073-9.56445 439.073-11.6719L439.073-32.9893 433.966-32.9893C433.561-32.9893 433.237-33.2054 432.994-33.6377 432.751-34.07 432.629-34.7725 432.629-35.7451 432.629-36.2585 432.663-36.6908 432.73-37.042 432.798-37.3932 432.886-37.6837 432.994-37.9133 433.102-38.143 433.244-38.3051 433.419-38.3997 433.595-38.4942 433.791-38.5415 434.007-38.5415L439.073-38.5415 439.073-47.2144C439.073-47.4035 439.12-47.5791 439.215-47.7412 439.309-47.9033 439.485-48.0452 439.742-48.1667 439.998-48.2883 440.343-48.3761 440.775-48.4302 441.207-48.4842 441.748-48.5112 442.396-48.5112 443.072-48.5112 443.625-48.4842 444.058-48.4302 444.49-48.3761 444.828-48.2883 445.071-48.1667 445.314-48.0452 445.49-47.9033 445.598-47.7412 445.706-47.5791 445.76-47.4035 445.76-47.2144L445.76-38.5415 455.122-38.5415C455.338-38.5415 455.527-38.4942 455.689-38.3997 455.851-38.3051 455.993-38.143 456.115-37.9133 456.236-37.6837 456.324-37.3932 456.378-37.042 456.432-36.6908 456.459-36.2585 456.459-35.7451 456.459-34.7725 456.338-34.07 456.094-33.6377 455.851-33.2054 455.527-32.9893 455.122-32.9893L445.76-32.9893 445.76-12.6445C445.76-10.1318 446.131-8.2338 446.874-6.95044 447.617-5.66707 448.948-5.02539 450.866-5.02539 451.488-5.02539 452.042-5.08618 452.528-5.20776 453.014-5.32934 453.447-5.45768 453.825-5.59277 454.203-5.72786 454.527-5.8562 454.797-5.97778 455.068-6.09936 455.311-6.16016 455.527-6.16016 455.662-6.16016 455.79-6.12638 455.912-6.05884 456.034-5.99129 456.128-5.86296 456.196-5.67383 456.263-5.4847 456.324-5.22803 456.378-4.90381 456.432-4.57959 456.459-4.17432 456.459-3.68799Z" transform="matrix(1 0 0 1 65.1041 118)"/></g></g></g><rect x="248.5" y="798.5" width="880" height="165" stroke="#000000" stroke-width="3.4375" stroke-linejoin="round" stroke-miterlimit="10" fill="#F2F2F2"/><text font-family="Calibri,Calibri_MSFontService,sans-serif" font-weight="400" font-size="83" transform="matrix(1 0 0 1 408.104 907)">Update Client</text><g clip-path="url(#clip13)"><g filter="url(#fx4)" transform="translate(231 1145)"><g><rect x="17.5" y="17.7177" width="880" height="165" stroke="#000000" stroke-width="3" stroke-linejoin="round" stroke-miterlimit="10" fill="#F2F2F2"/></g></g><g clip-path="url(#clip14)" filter="url(#fx5)" transform="translate(420 1154)"><g><path d="M47.2954-26.9912C47.2954-22.4521 46.7145-18.4872 45.5527-15.0964 44.3909-11.7056 42.6955-8.89575 40.4665-6.66675 38.2375-4.43774 35.5019-2.76937 32.2598-1.66162 29.0176-0.553874 25.154 0 20.6689 0L9.56445 0C8.94303 0 8.35539-0.209391 7.80151-0.628174 7.24764-1.04696 6.9707-1.7832 6.9707-2.83691L6.9707-49.6055C6.9707-50.6592 7.24764-51.3954 7.80151-51.8142 8.35539-52.233 8.94303-52.4424 9.56445-52.4424L21.439-52.4424C25.978-52.4424 29.8146-51.8547 32.9487-50.6794 36.0828-49.5041 38.7104-47.8155 40.8313-45.6135 42.9522-43.4115 44.5598-40.7435 45.654-37.6094 46.7483-34.4753 47.2954-30.9359 47.2954-26.9912ZM39.96-26.7075C39.96-29.5444 39.6087-32.1855 38.9062-34.6306 38.2038-37.0758 37.1028-39.1899 35.6033-40.9731 34.1038-42.7563 32.2057-44.1478 29.9092-45.1475 27.6126-46.1471 24.6541-46.647 21.0337-46.647L13.9414-46.647 13.9414-5.83594 21.1147-5.83594C24.465-5.83594 27.2884-6.25472 29.585-7.09228 31.8815-7.92985 33.7998-9.21321 35.3398-10.9424 36.8799-12.6715 38.0349-14.8398 38.8049-17.447 39.5749-20.0543 39.96-23.1411 39.96-26.7075ZM84.6678-0.972656C84.6678-0.648437 84.5597-0.405273 84.3436-0.243164 84.1274-0.0810547 83.8302 0.0405273 83.452 0.121582 83.0737 0.202637 82.5199 0.243164 81.7904 0.243164 81.0879 0.243164 80.5273 0.202637 80.1085 0.121582 79.6897 0.0405273 79.3857-0.0810547 79.1966-0.243164 79.0075-0.405273 78.9129-0.648437 78.9129-0.972656L78.9129-4.62012C77.3188-2.91797 75.5424-1.59408 73.5836-0.648437 71.6247 0.2972 69.5511 0.770019 67.3626 0.770019 65.4443 0.770019 63.7084 0.520101 62.1549 0.0202637 60.6013-0.479574 59.2774-1.20231 58.1832-2.14795 57.0889-3.09359 56.2379-4.25537 55.63-5.6333 55.022-7.01123 54.7181-8.57829 54.7181-10.3345 54.7181-12.3879 55.1369-14.1711 55.9744-15.6841 56.812-17.1971 58.0143-18.4534 59.5814-19.4531 61.1484-20.4528 63.0667-21.2026 65.3363-21.7024 67.6058-22.2022 70.159-22.4521 72.9959-22.4521L78.0213-22.4521 78.0213-25.2891C78.0213-26.694 77.8727-27.9368 77.5755-29.0176 77.2783-30.0983 76.7987-30.9967 76.1368-31.7126 75.4748-32.4286 74.617-32.969 73.5633-33.3337 72.5096-33.6985 71.2127-33.8809 69.6727-33.8809 68.0246-33.8809 66.5453-33.685 65.2349-33.2932 63.9246-32.9014 62.7763-32.4692 61.7901-31.9963 60.804-31.5235 59.9799-31.0912 59.318-30.6995 58.656-30.3077 58.1629-30.1118 57.8387-30.1118 57.6226-30.1118 57.4334-30.1658 57.2713-30.2739 57.1092-30.382 56.9674-30.5441 56.8458-30.7603 56.7242-30.9764 56.6364-31.2533 56.5824-31.5911 56.5283-31.9288 56.5013-32.3003 56.5013-32.7056 56.5013-33.381 56.5486-33.9146 56.6431-34.3064 56.7377-34.6982 56.9674-35.0697 57.3321-35.4209 57.6969-35.7721 58.325-36.1842 59.2166-36.657 60.1082-37.1298 61.1349-37.5621 62.2967-37.9539 63.4585-38.3456 64.7283-38.6698 66.1063-38.9265 67.4842-39.1832 68.8756-39.3115 70.2806-39.3115 72.9014-39.3115 75.1304-39.0143 76.9676-38.4199 78.8048-37.8255 80.2908-36.9542 81.4256-35.8059 82.5604-34.6576 83.3844-33.2324 83.8978-31.5303 84.4111-29.8281 84.6678-27.8423 84.6678-25.5728ZM78.0213-17.6294 72.307-17.6294C70.4697-17.6294 68.8756-17.474 67.5247-17.1633 66.1738-16.8526 65.0526-16.3933 64.161-15.7854 63.2694-15.1775 62.6142-14.448 62.1954-13.5969 61.7766-12.7458 61.5672-11.7664 61.5672-10.6587 61.5672-8.76741 62.1684-7.26115 63.3707-6.13989 64.573-5.01864 66.2549-4.45801 68.4163-4.45801 70.1725-4.45801 71.8004-4.90381 73.2999-5.79541 74.7994-6.68701 76.3732-8.05143 78.0213-9.88867ZM114.932-3.68799C114.932-2.90446 114.878-2.28304 114.77-1.82373 114.662-1.36442 114.5-1.02669 114.284-0.810547 114.067-0.594401 113.743-0.391764 113.311-0.202637 112.879-0.0135091 112.386 0.141846 111.832 0.263428 111.278 0.38501 110.69 0.486328 110.069 0.567383 109.447 0.648437 108.826 0.688965 108.205 0.688965 106.313 0.688965 104.692 0.439046 103.341-0.060791 101.99-0.560628 100.883-1.31714 100.018-2.33032 99.1534-3.34351 98.5252-4.62687 98.1335-6.18042 97.7417-7.73397 97.5458-9.56445 97.5458-11.6719L97.5458-32.9893 92.4394-32.9893C92.0341-32.9893 91.7099-33.2054 91.4667-33.6377 91.2236-34.07 91.102-34.7725 91.102-35.7451 91.102-36.2585 91.1357-36.6908 91.2033-37.042 91.2708-37.3932 91.3587-37.6837 91.4667-37.9133 91.5748-38.143 91.7166-38.3051 91.8923-38.3997 92.0679-38.4942 92.2638-38.5415 92.4799-38.5415L97.5458-38.5415 97.5458-47.2144C97.5458-47.4035 97.5931-47.5791 97.6877-47.7412 97.7822-47.9033 97.9579-48.0452 98.2145-48.1667 98.4712-48.2883 98.8157-48.3761 99.248-48.4302 99.6803-48.4842 100.221-48.5112 100.869-48.5112 101.545-48.5112 102.098-48.4842 102.531-48.4302 102.963-48.3761 103.301-48.2883 103.544-48.1667 103.787-48.0452 103.963-47.9033 104.071-47.7412 104.179-47.5791 104.233-47.4035 104.233-47.2144L104.233-38.5415 113.595-38.5415C113.811-38.5415 114-38.4942 114.162-38.3997 114.324-38.3051 114.466-38.143 114.588-37.9133 114.709-37.6837 114.797-37.3932 114.851-37.042 114.905-36.6908 114.932-36.2585 114.932-35.7451 114.932-34.7725 114.81-34.07 114.567-33.6377 114.324-33.2054 114-32.9893 113.595-32.9893L104.233-32.9893 104.233-12.6445C104.233-10.1318 104.604-8.2338 105.347-6.95044 106.09-5.66707 107.421-5.02539 109.339-5.02539 109.961-5.02539 110.515-5.08618 111.001-5.20776 111.487-5.32934 111.92-5.45768 112.298-5.59277 112.676-5.72786 113-5.8562 113.27-5.97778 113.541-6.09936 113.784-6.16016 114-6.16016 114.135-6.16016 114.263-6.12638 114.385-6.05884 114.507-5.99129 114.601-5.86296 114.669-5.67383 114.736-5.4847 114.797-5.22803 114.851-4.90381 114.905-4.57959 114.932-4.17432 114.932-3.68799ZM149.934-0.972656C149.934-0.648437 149.826-0.405273 149.61-0.243164 149.394-0.0810547 149.097 0.0405273 148.719 0.121582 148.34 0.202637 147.787 0.243164 147.057 0.243164 146.355 0.243164 145.794 0.202637 145.375 0.121582 144.956 0.0405273 144.652-0.0810547 144.463-0.243164 144.274-0.405273 144.18-0.648437 144.18-0.972656L144.18-4.62012C142.586-2.91797 140.809-1.59408 138.85-0.648437 136.891 0.2972 134.818 0.770019 132.629 0.770019 130.711 0.770019 128.975 0.520101 127.422 0.0202637 125.868-0.479574 124.544-1.20231 123.45-2.14795 122.356-3.09359 121.505-4.25537 120.897-5.6333 120.289-7.01123 119.985-8.57829 119.985-10.3345 119.985-12.3879 120.404-14.1711 121.241-15.6841 122.079-17.1971 123.281-18.4534 124.848-19.4531 126.415-20.4528 128.333-21.2026 130.603-21.7024 132.872-22.2022 135.426-22.4521 138.263-22.4521L143.288-22.4521 143.288-25.2891C143.288-26.694 143.139-27.9368 142.842-29.0176 142.545-30.0983 142.065-30.9967 141.403-31.7126 140.742-32.4286 139.884-32.969 138.83-33.3337 137.776-33.6985 136.479-33.8809 134.939-33.8809 133.291-33.8809 131.812-33.685 130.502-33.2932 129.191-32.9014 128.043-32.4692 127.057-31.9963 126.071-31.5235 125.247-31.0912 124.585-30.6995 123.923-30.3077 123.43-30.1118 123.105-30.1118 122.889-30.1118 122.7-30.1658 122.538-30.2739 122.376-30.382 122.234-30.5441 122.112-30.7603 121.991-30.9764 121.903-31.2533 121.849-31.5911 121.795-31.9288 121.768-32.3003 121.768-32.7056 121.768-33.381 121.815-33.9146 121.91-34.3064 122.004-34.6982 122.234-35.0697 122.599-35.4209 122.964-35.7721 123.592-36.1842 124.483-36.657 125.375-37.1298 126.402-37.5621 127.563-37.9539 128.725-38.3456 129.995-38.6698 131.373-38.9265 132.751-39.1832 134.142-39.3115 135.547-39.3115 138.168-39.3115 140.397-39.0143 142.234-38.4199 144.072-37.8255 145.558-36.9542 146.692-35.8059 147.827-34.6576 148.651-33.2324 149.164-31.5303 149.678-29.8281 149.934-27.8423 149.934-25.5728ZM143.288-17.6294 137.574-17.6294C135.736-17.6294 134.142-17.474 132.791-17.1633 131.44-16.8526 130.319-16.3933 129.428-15.7854 128.536-15.1775 127.881-14.448 127.462-13.5969 127.043-12.7458 126.834-11.7664 126.834-10.6587 126.834-8.76741 127.435-7.26115 128.637-6.13989 129.84-5.01864 131.522-4.45801 133.683-4.45801 135.439-4.45801 137.067-4.90381 138.567-5.79541 140.066-6.68701 141.64-8.05143 143.288-9.88867ZM209.831-14.7114C209.831-12.2528 209.378-10.0643 208.473-8.146 207.568-6.2277 206.312-4.59985 204.704-3.26245 203.097-1.92505 201.205-0.91862 199.03-0.243164 196.855 0.432292 194.512 0.770019 191.999 0.770019 190.243 0.770019 188.615 0.621419 187.115 0.324219 185.616 0.0270182 184.278-0.337728 183.103-0.770019 181.928-1.20231 180.942-1.64811 180.145-2.10742 179.348-2.56673 178.794-2.9585 178.483-3.28271 178.172-3.60693 177.943-4.01896 177.794-4.5188 177.645-5.01864 177.571-5.68734 177.571-6.5249 177.571-7.1193 177.598-7.61239 177.652-8.00415 177.706-8.39591 177.787-8.71338 177.895-8.95654 178.003-9.19971 178.139-9.36857 178.301-9.46313 178.463-9.5577 178.652-9.60498 178.868-9.60498 179.246-9.60498 179.78-9.37532 180.469-8.91601 181.158-8.45671 182.043-7.95687 183.123-7.4165 184.204-6.87614 185.508-6.36955 187.034-5.89673 188.561-5.42391 190.324-5.1875 192.323-5.1875 193.836-5.1875 195.221-5.39014 196.477-5.79541 197.734-6.20068 198.814-6.77482 199.719-7.51782 200.624-8.26082 201.32-9.17269 201.807-10.2534 202.293-11.3341 202.536-12.5635 202.536-13.9414 202.536-15.4274 202.198-16.6973 201.523-17.751 200.847-18.8047 199.956-19.7301 198.848-20.5271 197.74-21.3241 196.477-22.0536 195.059-22.7156 193.64-23.3775 192.188-24.053 190.702-24.7419 189.216-25.4309 187.771-26.1942 186.366-27.0317 184.961-27.8693 183.704-28.8555 182.597-29.9902 181.489-31.125 180.59-32.4556 179.902-33.9822 179.213-35.5087 178.868-37.3392 178.868-39.4736 178.868-41.6621 179.267-43.6142 180.064-45.3298 180.861-47.0455 181.968-48.4842 183.387-49.646 184.805-50.8078 186.494-51.6926 188.453-52.3005 190.412-52.9084 192.526-53.2124 194.795-53.2124 195.957-53.2124 197.126-53.1111 198.301-52.9084 199.476-52.7058 200.584-52.4356 201.624-52.0979 202.664-51.7602 203.59-51.3819 204.4-50.9631 205.211-50.5443 205.744-50.2066 206.001-49.9499 206.258-49.6933 206.427-49.4906 206.508-49.342 206.589-49.1934 206.656-49.0043 206.71-48.7747 206.764-48.545 206.805-48.2681 206.832-47.9438 206.859-47.6196 206.872-47.2008 206.872-46.6875 206.872-46.2012 206.852-45.7689 206.812-45.3906 206.771-45.0124 206.71-44.6949 206.629-44.4382 206.548-44.1816 206.433-43.9924 206.285-43.8708 206.136-43.7493 205.967-43.6885 205.778-43.6885 205.481-43.6885 205.015-43.8776 204.38-44.2559 203.745-44.6341 202.968-45.0596 202.05-45.5325 201.131-46.0053 200.044-46.4376 198.787-46.8293 197.531-47.2211 196.119-47.417 194.552-47.417 193.093-47.417 191.823-47.2211 190.743-46.8293 189.662-46.4376 188.77-45.9175 188.068-45.269 187.365-44.6206 186.838-43.8506 186.487-42.959 186.136-42.0674 185.96-41.1217 185.96-40.1221 185.96-38.6631 186.298-37.4067 186.974-36.353 187.649-35.2993 188.547-34.3672 189.669-33.5566 190.79-32.7461 192.066-32.0031 193.498-31.3276 194.93-30.6522 196.389-29.97 197.875-29.281 199.361-28.592 200.82-27.8355 202.252-27.0115 203.684-26.1874 204.961-25.2148 206.082-24.0935 207.203-22.9722 208.109-21.6484 208.798-20.1218 209.486-18.5953 209.831-16.7918 209.831-14.7114ZM252.628-19.6558C252.628-16.6838 252.237-13.9482 251.453-11.449 250.669-8.94979 249.501-6.79508 247.947-4.98486 246.394-3.17464 244.449-1.76294 242.111-0.749756 239.774 0.263428 237.066 0.770019 233.986 0.770019 230.987 0.770019 228.373 0.324219 226.144-0.567383 223.915-1.45898 222.057-2.75586 220.571-4.45801 219.085-6.16016 217.977-8.22705 217.248-10.6587 216.518-13.0903 216.154-15.8462 216.154-18.9263 216.154-21.8983 216.539-24.6339 217.309-27.1331 218.079-29.6322 219.241-31.7869 220.794-33.5972 222.348-35.4074 224.286-36.8123 226.61-37.812 228.933-38.8117 231.649-39.3115 234.756-39.3115 237.755-39.3115 240.369-38.8657 242.598-37.9741 244.827-37.0825 246.684-35.7856 248.17-34.0835 249.656-32.3813 250.771-30.3144 251.514-27.8828 252.257-25.4512 252.628-22.7088 252.628-19.6558ZM245.698-19.21C245.698-21.1823 245.514-23.0465 245.146-24.8027 244.778-26.5589 244.171-28.099 243.326-29.4228 242.481-30.7467 241.336-31.7937 239.891-32.5637 238.446-33.3337 236.647-33.7187 234.493-33.7187 232.503-33.7187 230.792-33.3675 229.361-32.665 227.93-31.9626 226.75-30.9696 225.824-29.6863 224.897-28.4029 224.208-26.8831 223.759-25.127 223.309-23.3708 223.084-21.4525 223.084-19.3721 223.084-17.3727 223.268-15.495 223.636-13.7388 224.004-11.9826 224.618-10.4493 225.476-9.13892 226.335-7.82853 227.487-6.78833 228.932-6.01831 230.376-5.24829 232.176-4.86328 234.33-4.86328 236.293-4.86328 237.997-5.21452 239.441-5.91699 240.886-6.61947 242.072-7.60563 242.999-8.87549 243.926-10.1453 244.607-11.6584 245.044-13.4145 245.48-15.1707 245.698-17.1025 245.698-19.21ZM293.495-1.01318C293.495-0.797038 293.448-0.614665 293.353-0.466064 293.259-0.317464 293.09-0.189128 292.847-0.0810547 292.604 0.0270182 292.286 0.108073 291.894 0.162109 291.503 0.216146 291.023 0.243164 290.456 0.243164 289.834 0.243164 289.328 0.216146 288.936 0.162109 288.544 0.108073 288.233 0.0270182 288.004-0.0810547 287.774-0.189128 287.619-0.317464 287.538-0.466064 287.457-0.614665 287.416-0.797038 287.416-1.01318L287.416-5.83594C285.336-3.53939 283.282-1.86426 281.256-0.810547 279.23 0.243164 277.176 0.770019 275.096 0.770019 272.664 0.770019 270.617 0.364746 268.956-0.445801 267.294-1.25635 265.95-2.35734 264.923-3.74878 263.897-5.14022 263.16-6.76131 262.715-8.61206 262.269-10.4628 262.046-12.7121 262.046-15.3599L262.046-37.4878C262.046-37.7039 262.093-37.8863 262.188-38.0349 262.282-38.1835 262.465-38.3186 262.735-38.4402 263.005-38.5618 263.356-38.6428 263.789-38.6833 264.221-38.7239 264.761-38.7441 265.41-38.7441 266.058-38.7441 266.599-38.7239 267.031-38.6833 267.463-38.6428 267.808-38.5618 268.064-38.4402 268.321-38.3186 268.503-38.1835 268.611-38.0349 268.719-37.8863 268.773-37.7039 268.773-37.4878L268.773-16.2515C268.773-14.117 268.929-12.4081 269.24-11.1248 269.55-9.84139 270.023-8.74715 270.658-7.84204 271.293-6.93693 272.097-6.23446 273.069-5.73462 274.042-5.23478 275.177-4.98486 276.474-4.98486 278.149-4.98486 279.817-5.57926 281.479-6.76807 283.14-7.95687 284.903-9.69954 286.768-11.9961L286.768-37.4878C286.768-37.7039 286.815-37.8863 286.909-38.0349 287.004-38.1835 287.186-38.3186 287.457-38.4402 287.727-38.5618 288.071-38.6428 288.49-38.6833 288.909-38.7239 289.456-38.7441 290.131-38.7441 290.78-38.7441 291.32-38.7239 291.753-38.6833 292.185-38.6428 292.523-38.5618 292.766-38.4402 293.009-38.3186 293.191-38.1835 293.313-38.0349 293.434-37.8863 293.495-37.7039 293.495-37.4878ZM327.108-35.0967C327.108-34.5023 327.094-34.0024 327.067-33.5972 327.04-33.1919 326.986-32.8744 326.905-32.6448 326.824-32.4151 326.723-32.2395 326.601-32.1179 326.479-31.9963 326.311-31.9355 326.094-31.9355 325.878-31.9355 325.615-31.9963 325.304-32.1179 324.993-32.2395 324.642-32.3611 324.25-32.4827 323.859-32.6042 323.42-32.7191 322.933-32.8271 322.447-32.9352 321.92-32.9893 321.353-32.9893 320.677-32.9893 320.015-32.8542 319.367-32.584 318.718-32.3138 318.036-31.868 317.32-31.2466 316.604-30.6252 315.855-29.8011 315.071-28.7744 314.287-27.7477 313.423-26.4914 312.477-25.0054L312.477-1.01318C312.477-0.797038 312.423-0.614665 312.315-0.466064 312.207-0.317464 312.031-0.189128 311.788-0.0810547 311.545 0.0270182 311.207 0.108073 310.775 0.162109 310.343 0.216146 309.789 0.243164 309.113 0.243164 308.465 0.243164 307.925 0.216146 307.492 0.162109 307.06 0.108073 306.716 0.0270182 306.459-0.0810547 306.202-0.189128 306.027-0.317464 305.932-0.466064 305.838-0.614665 305.79-0.797038 305.79-1.01318L305.79-37.4878C305.79-37.7039 305.831-37.8863 305.912-38.0349 305.993-38.1835 306.155-38.3186 306.398-38.4402 306.641-38.5618 306.952-38.6428 307.33-38.6833 307.709-38.7239 308.208-38.7441 308.83-38.7441 309.424-38.7441 309.917-38.7239 310.309-38.6833 310.701-38.6428 311.005-38.5618 311.221-38.4402 311.437-38.3186 311.592-38.1835 311.687-38.0349 311.782-37.8863 311.829-37.7039 311.829-37.4878L311.829-32.1787C312.828-33.6377 313.767-34.8265 314.645-35.7451 315.524-36.6637 316.354-37.3865 317.138-37.9133 317.921-38.4402 318.698-38.8049 319.468-39.0076 320.238-39.2102 321.015-39.3115 321.799-39.3115 322.15-39.3115 322.548-39.2913 322.994-39.2507 323.44-39.2102 323.906-39.1359 324.392-39.0278 324.879-38.9198 325.318-38.7982 325.709-38.6631 326.101-38.528 326.378-38.3929 326.54-38.2578 326.702-38.1227 326.81-37.9944 326.864-37.8728 326.918-37.7512 326.966-37.5959 327.006-37.4067 327.047-37.2176 327.074-36.9407 327.087-36.5759 327.101-36.2112 327.108-35.7181 327.108-35.0967ZM359.443-6.56543C359.443-6.10612 359.429-5.7076 359.402-5.36987 359.375-5.03214 359.328-4.74845 359.26-4.5188 359.193-4.28914 359.112-4.08651 359.017-3.91089 358.923-3.73527 358.706-3.4786 358.369-3.14087 358.031-2.80314 357.457-2.38436 356.646-1.88452 355.836-1.38468 354.924-0.938883 353.911-0.547119 352.898-0.155355 351.797 0.162109 350.608 0.405273 349.419 0.648437 348.19 0.770019 346.92 0.770019 344.299 0.770019 341.975 0.337728 339.949-0.526855 337.923-1.39144 336.227-2.65454 334.863-4.31616 333.498-5.97778 332.458-8.01766 331.742-10.4358 331.026-12.8539 330.668-15.6436 330.668-18.8047 330.668-22.3981 331.107-25.4849 331.985-28.0652 332.863-30.6454 334.066-32.7596 335.592-34.4077 337.119-36.0558 338.916-37.2784 340.982-38.0754 343.049-38.8725 345.285-39.271 347.69-39.271 348.852-39.271 349.98-39.1629 351.074-38.9468 352.168-38.7306 353.174-38.4469 354.093-38.0957 355.012-37.7445 355.829-37.3392 356.545-36.8799 357.261-36.4206 357.781-36.0288 358.105-35.7046 358.43-35.3804 358.652-35.1237 358.774-34.9346 358.896-34.7454 358.997-34.5225 359.078-34.2659 359.159-34.0092 359.213-33.7187 359.24-33.3945 359.267-33.0703 359.281-32.665 359.281-32.1787 359.281-31.125 359.159-30.3888 358.916-29.97 358.673-29.5512 358.375-29.3418 358.024-29.3418 357.619-29.3418 357.153-29.5647 356.626-30.0105 356.099-30.4563 355.43-30.9494 354.62-31.4897 353.809-32.0301 352.83-32.5232 351.682-32.969 350.533-33.4148 349.176-33.6377 347.609-33.6377 344.394-33.6377 341.928-32.4016 340.212-29.9294 338.497-27.4573 337.639-23.8706 337.639-19.1694 337.639-16.8188 337.862-14.7587 338.308-12.989 338.753-11.2193 339.409-9.74007 340.273-8.55127 341.138-7.36247 342.198-6.47762 343.455-5.89673 344.711-5.31584 346.15-5.02539 347.771-5.02539 349.311-5.02539 350.662-5.26855 351.824-5.75488 352.985-6.24121 353.992-6.77482 354.843-7.35571 355.694-7.9366 356.41-8.46346 356.991-8.93628 357.572-9.4091 358.024-9.64551 358.348-9.64551 358.538-9.64551 358.7-9.59147 358.835-9.4834 358.97-9.37532 359.085-9.19295 359.179-8.93628 359.274-8.6796 359.341-8.35539 359.382-7.96362 359.422-7.57186 359.443-7.10579 359.443-6.56543ZM399.294-20.8311C399.294-19.7773 399.03-19.0276 398.501-18.5818 397.971-18.136 397.367-17.9131 396.689-17.9131L372.668-17.9131C372.668-15.8867 372.872-14.063 373.279-12.4419 373.686-10.8208 374.365-9.42936 375.315-8.26758 376.265-7.10579 377.5-6.21419 379.021-5.59277 380.541-4.97135 382.401-4.66064 384.6-4.66064 386.338-4.66064 387.885-4.80249 389.243-5.08618 390.6-5.36987 391.774-5.68734 392.765-6.03857 393.756-6.38981 394.571-6.70727 395.209-6.99097 395.847-7.27466 396.329-7.4165 396.655-7.4165 396.845-7.4165 397.015-7.36922 397.164-7.27466 397.313-7.18009 397.428-7.03825 397.51-6.84912 397.591-6.65999 397.652-6.39657 397.693-6.05884 397.734-5.72111 397.754-5.30908 397.754-4.82275 397.754-4.47152 397.741-4.16756 397.714-3.91089 397.687-3.65422 397.653-3.42456 397.613-3.22192 397.572-3.01929 397.504-2.83691 397.41-2.6748 397.315-2.5127 397.194-2.35734 397.045-2.20874 396.897-2.06014 396.457-1.81698 395.728-1.47925 394.998-1.14152 394.053-0.810547 392.891-0.486328 391.729-0.162109 390.385 0.128337 388.859 0.38501 387.332 0.641683 385.704 0.770019 383.975 0.770019 380.976 0.770019 378.349 0.351237 376.092-0.486328 373.836-1.32389 371.938-2.56673 370.398-4.21484 368.858-5.86296 367.697-7.92985 366.913-10.4155 366.13-12.9012 365.738-15.7922 365.738-19.0884 365.738-22.2225 366.143-25.0391 366.954-27.5383 367.764-30.0375 368.933-32.1584 370.459-33.9011 371.986-35.6438 373.83-36.9812 375.991-37.9133 378.153-38.8455 380.571-39.3115 383.246-39.3115 386.109-39.3115 388.548-38.8522 390.561-37.9336 392.574-37.015 394.228-35.7789 395.525-34.2253 396.822-32.6718 397.775-30.8481 398.383-28.7541 398.99-26.6602 399.294-24.4245 399.294-22.0469ZM392.567-22.8169C392.648-26.3293 391.866-29.0851 390.222-31.0845 388.578-33.0838 386.138-34.0835 382.903-34.0835 381.245-34.0835 379.79-33.7728 378.54-33.1514 377.29-32.5299 376.243-31.7059 375.4-30.6792 374.557-29.6525 373.905-28.4569 373.443-27.0925 372.981-25.7281 372.722-24.3029 372.668-22.8169Z" transform="matrix(1 0 0 1 65.8905 118)"/></g></g></g><rect x="248.5" y="1155.5" width="880" height="165" stroke="#000000" stroke-width="3.4375" stroke-linejoin="round" stroke-miterlimit="10" fill="#F2F2F2"/><text font-family="Calibri,Calibri_MSFontService,sans-serif" font-weight="400" font-size="83" transform="matrix(1 0 0 1 405.891 1265)">Data Source</text><g clip-path="url(#clip15)"><g filter="url(#fx6)" transform="translate(2266 430)"><g><rect x="17.5" y="17.7177" width="880" height="880" stroke="#000000" stroke-width="3" stroke-linejoin="round" stroke-miterlimit="10" fill="#F2F2F2"/></g></g><g clip-path="url(#clip16)" filter="url(#fx7)" transform="translate(2502 797)"><g><path d="M47.2954-26.9912C47.2954-22.4521 46.7145-18.4872 45.5527-15.0964 44.3909-11.7056 42.6955-8.89575 40.4665-6.66675 38.2375-4.43774 35.5019-2.76937 32.2598-1.66162 29.0176-0.553874 25.154 0 20.6689 0L9.56445 0C8.94303 0 8.35539-0.209391 7.80151-0.628174 7.24764-1.04696 6.9707-1.7832 6.9707-2.83691L6.9707-49.6055C6.9707-50.6592 7.24764-51.3954 7.80151-51.8142 8.35539-52.233 8.94303-52.4424 9.56445-52.4424L21.439-52.4424C25.978-52.4424 29.8146-51.8547 32.9487-50.6794 36.0828-49.5041 38.7104-47.8155 40.8313-45.6135 42.9522-43.4115 44.5598-40.7435 45.654-37.6094 46.7483-34.4753 47.2954-30.9359 47.2954-26.9912ZM39.96-26.7075C39.96-29.5444 39.6087-32.1855 38.9062-34.6306 38.2038-37.0758 37.1028-39.1899 35.6033-40.9731 34.1038-42.7563 32.2057-44.1478 29.9092-45.1475 27.6126-46.1471 24.6541-46.647 21.0337-46.647L13.9414-46.647 13.9414-5.83594 21.1147-5.83594C24.465-5.83594 27.2884-6.25472 29.585-7.09228 31.8815-7.92985 33.7998-9.21321 35.3398-10.9424 36.8799-12.6715 38.0349-14.8398 38.8049-17.447 39.5749-20.0543 39.96-23.1411 39.96-26.7075ZM63.8773-1.01318C63.8773-0.797038 63.8232-0.614665 63.7152-0.466064 63.6071-0.317464 63.4315-0.189128 63.1883-0.0810547 62.9451 0.0270182 62.6074 0.108073 62.1751 0.162109 61.7428 0.216146 61.189 0.243164 60.5135 0.243164 59.8651 0.243164 59.3247 0.216146 58.8924 0.162109 58.4601 0.108073 58.1156 0.0270182 57.859-0.0810547 57.6023-0.189128 57.4267-0.317464 57.3321-0.466064 57.2375-0.614665 57.1903-0.797038 57.1903-1.01318L57.1903-37.4878C57.1903-37.6769 57.2375-37.8525 57.3321-38.0146 57.4267-38.1768 57.6023-38.3118 57.859-38.4199 58.1156-38.528 58.4601-38.609 58.8924-38.6631 59.3247-38.7171 59.8651-38.7441 60.5135-38.7441 61.189-38.7441 61.7428-38.7171 62.1751-38.6631 62.6074-38.609 62.9451-38.528 63.1883-38.4199 63.4315-38.3118 63.6071-38.1768 63.7152-38.0146 63.8232-37.8525 63.8773-37.6769 63.8773-37.4878ZM64.6473-49.8081C64.6473-48.241 64.3501-47.1738 63.7557-46.6064 63.1613-46.0391 62.0671-45.7554 60.473-45.7554 58.9059-45.7554 57.8319-46.0323 57.2511-46.5862 56.6702-47.1401 56.3797-48.187 56.3797-49.727 56.3797-51.2941 56.6769-52.3613 57.2713-52.9287 57.8657-53.4961 58.96-53.7798 60.554-53.7798 62.1211-53.7798 63.1951-53.5028 63.776-52.949 64.3568-52.3951 64.6473-51.3481 64.6473-49.8081ZM97.4139-35.0967C97.4139-34.5023 97.4004-34.0024 97.3734-33.5972 97.3463-33.1919 97.2923-32.8744 97.2113-32.6448 97.1302-32.4151 97.0289-32.2395 96.9073-32.1179 96.7857-31.9963 96.6169-31.9355 96.4007-31.9355 96.1846-31.9355 95.9211-31.9963 95.6104-32.1179 95.2997-32.2395 94.9485-32.3611 94.5567-32.4827 94.1649-32.6042 93.7259-32.7191 93.2396-32.8271 92.7533-32.9352 92.2264-32.9893 91.659-32.9893 90.9836-32.9893 90.3216-32.8542 89.6732-32.584 89.0247-32.3138 88.3425-31.868 87.6265-31.2466 86.9106-30.6252 86.1608-29.8011 85.3773-28.7744 84.5937-27.7477 83.7292-26.4914 82.7835-25.0054L82.7835-1.01318C82.7835-0.797038 82.7295-0.614665 82.6214-0.466064 82.5133-0.317464 82.3377-0.189128 82.0946-0.0810547 81.8514 0.0270182 81.5137 0.108073 81.0814 0.162109 80.6491 0.216146 80.0952 0.243164 79.4198 0.243164 78.7713 0.243164 78.2309 0.216146 77.7987 0.162109 77.3664 0.108073 77.0219 0.0270182 76.7652-0.0810547 76.5085-0.189128 76.3329-0.317464 76.2384-0.466064 76.1438-0.614665 76.0965-0.797038 76.0965-1.01318L76.0965-37.4878C76.0965-37.7039 76.137-37.8863 76.2181-38.0349 76.2991-38.1835 76.4613-38.3186 76.7044-38.4402 76.9476-38.5618 77.2583-38.6428 77.6366-38.6833 78.0148-38.7239 78.5146-38.7441 79.1361-38.7441 79.7305-38.7441 80.2235-38.7239 80.6153-38.6833 81.0071-38.6428 81.311-38.5618 81.5272-38.4402 81.7433-38.3186 81.8987-38.1835 81.9932-38.0349 82.0878-37.8863 82.1351-37.7039 82.1351-37.4878L82.1351-32.1787C83.1348-33.6377 84.0736-34.8265 84.9517-35.7451 85.8298-36.6637 86.6606-37.3865 87.4442-37.9133 88.2277-38.4402 89.0045-38.8049 89.7745-39.0076 90.5445-39.2102 91.3213-39.3115 92.1048-39.3115 92.456-39.3115 92.8546-39.2913 93.3004-39.2507 93.7462-39.2102 94.2122-39.1359 94.6986-39.0278 95.1849-38.9198 95.6239-38.7982 96.0157-38.6631 96.4075-38.528 96.6844-38.3929 96.8465-38.2578 97.0086-38.1227 97.1167-37.9944 97.1707-37.8728 97.2248-37.7512 97.272-37.5959 97.3126-37.4067 97.3531-37.2176 97.3801-36.9407 97.3936-36.5759 97.4071-36.2112 97.4139-35.7181 97.4139-35.0967ZM134.79-20.8311C134.79-19.7773 134.526-19.0276 133.996-18.5818 133.467-18.136 132.863-17.9131 132.184-17.9131L108.164-17.9131C108.164-15.8867 108.367-14.063 108.775-12.4419 109.182-10.8208 109.86-9.42936 110.811-8.26758 111.761-7.10579 112.996-6.21419 114.517-5.59277 116.037-4.97135 117.897-4.66064 120.096-4.66064 121.834-4.66064 123.381-4.80249 124.739-5.08618 126.096-5.36987 127.27-5.68734 128.261-6.03857 129.252-6.38981 130.067-6.70727 130.705-6.99097 131.343-7.27466 131.825-7.4165 132.151-7.4165 132.341-7.4165 132.51-7.36922 132.66-7.27466 132.809-7.18009 132.924-7.03825 133.006-6.84912 133.087-6.65999 133.148-6.39657 133.189-6.05884 133.23-5.72111 133.25-5.30908 133.25-4.82275 133.25-4.47152 133.237-4.16756 133.21-3.91089 133.183-3.65422 133.149-3.42456 133.108-3.22192 133.068-3.01929 133-2.83691 132.906-2.6748 132.811-2.5127 132.69-2.35734 132.541-2.20874 132.392-2.06014 131.953-1.81698 131.224-1.47925 130.494-1.14152 129.549-0.810547 128.387-0.486328 127.225-0.162109 125.881 0.128337 124.354 0.38501 122.828 0.641683 121.2 0.770019 119.471 0.770019 116.472 0.770019 113.844 0.351237 111.588-0.486328 109.332-1.32389 107.434-2.56673 105.894-4.21484 104.354-5.86296 103.192-7.92985 102.409-10.4155 101.625-12.9012 101.234-15.7922 101.234-19.0884 101.234-22.2225 101.639-25.0391 102.449-27.5383 103.26-30.0375 104.429-32.1584 105.955-33.9011 107.482-35.6438 109.326-36.9812 111.487-37.9133 113.648-38.8455 116.067-39.3115 118.741-39.3115 121.605-39.3115 124.044-38.8522 126.057-37.9336 128.069-37.015 129.724-35.7789 131.021-34.2253 132.318-32.6718 133.27-30.8481 133.878-28.7541 134.486-26.6602 134.79-24.4245 134.79-22.0469ZM128.063-22.8169C128.144-26.3293 127.362-29.0851 125.718-31.0845 124.074-33.0838 121.634-34.0835 118.399-34.0835 116.741-34.0835 115.286-33.7728 114.036-33.1514 112.785-32.5299 111.739-31.7059 110.896-30.6792 110.053-29.6525 109.401-28.4569 108.939-27.0925 108.477-25.7281 108.218-24.3029 108.164-22.8169ZM171.136-6.56543C171.136-6.10612 171.123-5.7076 171.096-5.36987 171.069-5.03214 171.022-4.74845 170.954-4.5188 170.887-4.28914 170.805-4.08651 170.711-3.91089 170.616-3.73527 170.4-3.4786 170.062-3.14087 169.725-2.80314 169.151-2.38436 168.34-1.88452 167.53-1.38468 166.618-0.938883 165.604-0.547119 164.591-0.155355 163.49 0.162109 162.301 0.405273 161.113 0.648437 159.883 0.770019 158.613 0.770019 155.993 0.770019 153.669 0.337728 151.643-0.526855 149.616-1.39144 147.921-2.65454 146.557-4.31616 145.192-5.97778 144.152-8.01766 143.436-10.4358 142.72-12.8539 142.362-15.6436 142.362-18.8047 142.362-22.3981 142.801-25.4849 143.679-28.0652 144.557-30.6454 145.76-32.7596 147.286-34.4077 148.813-36.0558 150.609-37.2784 152.676-38.0754 154.743-38.8725 156.979-39.271 159.384-39.271 160.545-39.271 161.673-39.1629 162.768-38.9468 163.862-38.7306 164.868-38.4469 165.787-38.0957 166.705-37.7445 167.523-37.3392 168.239-36.8799 168.955-36.4206 169.475-36.0288 169.799-35.7046 170.123-35.3804 170.346-35.1237 170.468-34.9346 170.589-34.7454 170.691-34.5225 170.772-34.2659 170.853-34.0092 170.907-33.7187 170.934-33.3945 170.961-33.0703 170.974-32.665 170.974-32.1787 170.974-31.125 170.853-30.3888 170.61-29.97 170.366-29.5512 170.069-29.3418 169.718-29.3418 169.313-29.3418 168.847-29.5647 168.32-30.0105 167.793-30.4563 167.124-30.9494 166.314-31.4897 165.503-32.0301 164.524-32.5232 163.375-32.969 162.227-33.4148 160.87-33.6377 159.302-33.6377 156.087-33.6377 153.622-32.4016 151.906-29.9294 150.191-27.4573 149.333-23.8706 149.333-19.1694 149.333-16.8188 149.556-14.7587 150.001-12.989 150.447-11.2193 151.102-9.74007 151.967-8.55127 152.832-7.36247 153.892-6.47762 155.148-5.89673 156.405-5.31584 157.843-5.02539 159.465-5.02539 161.005-5.02539 162.356-5.26855 163.517-5.75488 164.679-6.24121 165.686-6.77482 166.537-7.35571 167.388-7.9366 168.104-8.46346 168.685-8.93628 169.265-9.4091 169.718-9.64551 170.042-9.64551 170.231-9.64551 170.393-9.59147 170.529-9.4834 170.664-9.37532 170.778-9.19295 170.873-8.93628 170.968-8.6796 171.035-8.35539 171.076-7.96362 171.116-7.57186 171.136-7.10579 171.136-6.56543ZM198.83-3.68799C198.83-2.90446 198.776-2.28304 198.668-1.82373 198.56-1.36442 198.398-1.02669 198.182-0.810547 197.965-0.594401 197.641-0.391764 197.209-0.202637 196.777-0.0135091 196.283 0.141846 195.73 0.263428 195.176 0.38501 194.588 0.486328 193.967 0.567383 193.345 0.648437 192.724 0.688965 192.102 0.688965 190.211 0.688965 188.59 0.439046 187.239-0.060791 185.888-0.560628 184.78-1.31714 183.916-2.33032 183.051-3.34351 182.423-4.62687 182.031-6.18042 181.64-7.73397 181.444-9.56445 181.444-11.6719L181.444-32.9893 176.337-32.9893C175.932-32.9893 175.608-33.2054 175.365-33.6377 175.121-34.07 175-34.7725 175-35.7451 175-36.2585 175.034-36.6908 175.101-37.042 175.169-37.3932 175.257-37.6837 175.365-37.9133 175.473-38.143 175.615-38.3051 175.79-38.3997 175.966-38.4942 176.162-38.5415 176.378-38.5415L181.444-38.5415 181.444-47.2144C181.444-47.4035 181.491-47.5791 181.586-47.7412 181.68-47.9033 181.856-48.0452 182.112-48.1667 182.369-48.2883 182.714-48.3761 183.146-48.4302 183.578-48.4842 184.119-48.5112 184.767-48.5112 185.442-48.5112 185.996-48.4842 186.429-48.4302 186.861-48.3761 187.199-48.2883 187.442-48.1667 187.685-48.0452 187.861-47.9033 187.969-47.7412 188.077-47.5791 188.131-47.4035 188.131-47.2144L188.131-38.5415 197.493-38.5415C197.709-38.5415 197.898-38.4942 198.06-38.3997 198.222-38.3051 198.364-38.143 198.485-37.9133 198.607-37.6837 198.695-37.3932 198.749-37.042 198.803-36.6908 198.83-36.2585 198.83-35.7451 198.83-34.7725 198.708-34.07 198.465-33.6377 198.222-33.2054 197.898-32.9893 197.493-32.9893L188.131-32.9893 188.131-12.6445C188.131-10.1318 188.502-8.2338 189.245-6.95044 189.988-5.66707 191.319-5.02539 193.237-5.02539 193.859-5.02539 194.412-5.08618 194.899-5.20776 195.385-5.32934 195.817-5.45768 196.196-5.59277 196.574-5.72786 196.898-5.8562 197.168-5.97778 197.439-6.09936 197.682-6.16016 197.898-6.16016 198.033-6.16016 198.161-6.12638 198.283-6.05884 198.404-5.99129 198.499-5.86296 198.567-5.67383 198.634-5.4847 198.695-5.22803 198.749-4.90381 198.803-4.57959 198.83-4.17432 198.83-3.68799ZM240.482-19.6558C240.482-16.6838 240.091-13.9482 239.307-11.449 238.524-8.94979 237.355-6.79508 235.802-4.98486 234.248-3.17464 232.303-1.76294 229.966-0.749756 227.629 0.263428 224.92 0.770019 221.84 0.770019 218.841 0.770019 216.227 0.324219 213.998-0.567383 211.769-1.45898 209.911-2.75586 208.425-4.45801 206.939-6.16016 205.832-8.22705 205.102-10.6587 204.373-13.0903 204.008-15.8462 204.008-18.9263 204.008-21.8983 204.393-24.6339 205.163-27.1331 205.933-29.6322 207.095-31.7869 208.648-33.5972 210.202-35.4074 212.14-36.8123 214.464-37.812 216.787-38.8117 219.503-39.3115 222.61-39.3115 225.609-39.3115 228.223-38.8657 230.452-37.9741 232.681-37.0825 234.538-35.7856 236.024-34.0835 237.51-32.3813 238.625-30.3144 239.368-27.8828 240.111-25.4512 240.482-22.7088 240.482-19.6558ZM233.552-19.21C233.552-21.1823 233.368-23.0465 233-24.8027 232.632-26.5589 232.025-28.099 231.18-29.4228 230.335-30.7467 229.19-31.7937 227.745-32.5637 226.3-33.3337 224.501-33.7187 222.347-33.7187 220.357-33.7187 218.646-33.3675 217.215-32.665 215.784-31.9626 214.605-30.9696 213.678-29.6863 212.751-28.4029 212.063-26.8831 211.613-25.127 211.163-23.3708 210.938-21.4525 210.938-19.3721 210.938-17.3727 211.122-15.495 211.49-13.7388 211.858-11.9826 212.472-10.4493 213.33-9.13892 214.189-7.82853 215.341-6.78833 216.786-6.01831 218.231-5.24829 220.03-4.86328 222.184-4.86328 224.147-4.86328 225.851-5.21452 227.296-5.91699 228.74-6.61947 229.926-7.60563 230.853-8.87549 231.78-10.1453 232.462-11.6584 232.898-13.4145 233.334-15.1707 233.552-17.1025 233.552-19.21ZM271.42-35.0967C271.42-34.5023 271.407-34.0024 271.38-33.5972 271.353-33.1919 271.299-32.8744 271.217-32.6448 271.136-32.4151 271.035-32.2395 270.914-32.1179 270.792-31.9963 270.623-31.9355 270.407-31.9355 270.191-31.9355 269.927-31.9963 269.617-32.1179 269.306-32.2395 268.955-32.3611 268.563-32.4827 268.171-32.6042 267.732-32.7191 267.246-32.8271 266.759-32.9352 266.233-32.9893 265.665-32.9893 264.99-32.9893 264.328-32.8542 263.679-32.584 263.031-32.3138 262.349-31.868 261.633-31.2466 260.917-30.6252 260.167-29.8011 259.384-28.7744 258.6-27.7477 257.735-26.4914 256.79-25.0054L256.79-1.01318C256.79-0.797038 256.736-0.614665 256.628-0.466064 256.52-0.317464 256.344-0.189128 256.101-0.0810547 255.858 0.0270182 255.52 0.108073 255.088 0.162109 254.655 0.216146 254.101 0.243164 253.426 0.243164 252.778 0.243164 252.237 0.216146 251.805 0.162109 251.373 0.108073 251.028 0.0270182 250.771-0.0810547 250.515-0.189128 250.339-0.317464 250.245-0.466064 250.15-0.614665 250.103-0.797038 250.103-1.01318L250.103-37.4878C250.103-37.7039 250.143-37.8863 250.224-38.0349 250.305-38.1835 250.467-38.3186 250.711-38.4402 250.954-38.5618 251.265-38.6428 251.643-38.6833 252.021-38.7239 252.521-38.7441 253.142-38.7441 253.737-38.7441 254.23-38.7239 254.622-38.6833 255.013-38.6428 255.317-38.5618 255.533-38.4402 255.75-38.3186 255.905-38.1835 255.999-38.0349 256.094-37.8863 256.141-37.7039 256.141-37.4878L256.141-32.1787C257.141-33.6377 258.08-34.8265 258.958-35.7451 259.836-36.6637 260.667-37.3865 261.45-37.9133 262.234-38.4402 263.011-38.8049 263.781-39.0076 264.551-39.2102 265.328-39.3115 266.111-39.3115 266.462-39.3115 266.861-39.2913 267.307-39.2507 267.752-39.2102 268.218-39.1359 268.705-39.0278 269.191-38.9198 269.63-38.7982 270.022-38.6631 270.414-38.528 270.691-38.3929 270.853-38.2578 271.015-38.1227 271.123-37.9944 271.177-37.8728 271.231-37.7512 271.278-37.5959 271.319-37.4067 271.359-37.2176 271.386-36.9407 271.4-36.5759 271.413-36.2112 271.42-35.7181 271.42-35.0967ZM295.777 0 290.914 13.4145C290.752 13.8468 290.34 14.1778 289.678 14.4075 289.016 14.6371 288.01 14.752 286.659 14.752 285.956 14.752 285.389 14.7182 284.956 14.6506 284.524 14.5831 284.193 14.4683 283.964 14.3062 283.734 14.144 283.606 13.9279 283.579 13.6577 283.552 13.3875 283.619 13.0633 283.781 12.6851L288.807 0C288.563-0.108073 288.334-0.283691 288.118-0.526855 287.901-0.770019 287.753-1.02669 287.672-1.29687L274.663-36.1504C274.446-36.7178 274.338-37.1636 274.338-37.4878 274.338-37.812 274.446-38.0687 274.663-38.2578 274.879-38.4469 275.23-38.5753 275.716-38.6428 276.203-38.7104 276.851-38.7441 277.662-38.7441 278.472-38.7441 279.107-38.7239 279.566-38.6833 280.026-38.6428 280.39-38.5685 280.661-38.4604 280.931-38.3524 281.127-38.197 281.248-37.9944 281.37-37.7917 281.498-37.5148 281.633-37.1636L292.049-7.90283 292.17-7.90283 302.221-37.3257C302.383-37.839 302.579-38.17 302.809-38.3186 303.038-38.4672 303.383-38.5753 303.842-38.6428 304.302-38.7104 304.963-38.7441 305.828-38.7441 306.585-38.7441 307.206-38.7104 307.692-38.6428 308.179-38.5753 308.537-38.4469 308.766-38.2578 308.996-38.0687 309.111-37.812 309.111-37.4878 309.111-37.1636 309.03-36.7583 308.868-36.272Z" transform="matrix(1 0 0 1 65.3999 118)"/></g></g></g><rect x="2283.5" y="440.5" width="880" height="880" stroke="#000000" stroke-width="3.4375" stroke-linejoin="round" stroke-miterlimit="10" fill="#F2F2F2"/><text font-family="Calibri,Calibri_MSFontService,sans-serif" font-weight="400" font-size="83" transform="matrix(1 0 0 1 2517.4 907)">Directory</text><path d="M1128.5 521.781 2260.58 521.782 2260.58 525.219 1128.5 525.219ZM2256 509.75 2283.5 523.5 2256 537.25Z"/><text font-family="Calibri,Calibri_MSFontService,sans-serif" font-weight="400" font-size="48" transform="matrix(1 0 0 1 1243 489)">Find Matching Care Services [ITI-90]</text><path d="M1128.5 878.781 2260.58 878.781 2260.58 882.219 1128.5 882.219ZM2256 866.75 2283.5 880.5 2256 894.25Z"/><text font-family="Calibri,Calibri_MSFontService,sans-serif" font-weight="400" font-size="48" transform="matrix(1 0 0 1 1206 838)">Request Care Services Updates [ITI-91]</text><path d="M1128.5 1236.78 2260.58 1236.78 2260.58 1240.22 1128.5 1240.22ZM2256 1224.75 2283.5 1238.5 2256 1252.25Z"/><text font-family="Calibri,Calibri_MSFontService,sans-serif" font-weight="400" font-size="48" transform="matrix(1 0 0 1 1356.13 1210)">Care Services Feed [ITI-130]</text></g></svg>
