<svg xmlns="http://www.w3.org/2000/svg" xmlns:xlink="http://www.w3.org/1999/xlink" xml:space="preserve" viewBox="0 0 2186 2044"><g transform="translate(-546 -51)"><rect x="550.5" y="802.5" width="1953" height="1288" stroke="#000000" stroke-width="9.16667" stroke-linejoin="round" stroke-miterlimit="10" stroke-dasharray="36.6667 27.5" fill="#FFFFFF"/><text font-family="Calibri,Calibri_MSFontService,sans-serif" font-weight="400" font-size="55" transform="matrix(1 0 0 1 1304.65 869)">Country Jurisdiction</text><rect x="1210.5" y="55.4998" width="1517" height="1403" stroke="#000000" stroke-width="9.16667" stroke-linejoin="round" stroke-miterlimit="10" stroke-dasharray="36.6667 27.5" fill="#FFFFFF" fill-opacity="0"/><text font-family="Calibri,Calibri_MSFontService,sans-serif" font-weight="400" font-size="64" transform="matrix(1 0 0 1 1728.33 131)">Global Jurisdiction</text><rect x="798.5" y="55.4998" width="412" height="701" stroke="#000000" stroke-width="9.16667" stroke-linejoin="round" stroke-miterlimit="10" stroke-dasharray="36.6667 27.5" fill="#FFFFFF"/><rect x="1194.5" y="66.4998" width="33" height="680" stroke="#FFFFFF" stroke-width="9.16667" stroke-linejoin="round" stroke-miterlimit="10" fill="#FFFFFF"/><rect x="2057.5" y="142.5" width="615" height="481" stroke="#000000" stroke-width="9.16667" stroke-linejoin="round" stroke-miterlimit="10" fill="#FFFFFF"/><text font-family="Calibri,Calibri_MSFontService,sans-serif" font-weight="400" font-size="55" transform="matrix(1 0 0 1 2214.72 210)">Global Server</text><rect x="896.5" y="89.4999" width="615" height="300" stroke="#000000" stroke-width="9.16667" stroke-linejoin="round" stroke-miterlimit="10" fill="#FFFFFF"/><text font-family="Calibri,Calibri_MSFontService,sans-serif" font-weight="400" font-size="55" transform="matrix(1 0 0 1 1060.82 156)">Global Client</text><path d="M2099.5 259C2099.5 243.26 2112.26 230.5 2128 230.5L2568 230.5C2583.74 230.5 2596.5 243.26 2596.5 259L2596.5 373C2596.5 388.74 2583.74 401.5 2568 401.5L2128 401.5C2112.26 401.5 2099.5 388.74 2099.5 373Z" stroke="#000000" stroke-width="9.16667" stroke-linejoin="round" stroke-miterlimit="10" fill="#FFFFFF" fill-rule="evenodd"/><text font-family="Calibri,Calibri_MSFontService,sans-serif" font-weight="400" font-size="55" transform="matrix(1 0 0 1 2244.67 333)">Directory</text><path d="M945.5 212.167C945.5 196.335 958.335 183.5 974.167 183.5L1456.83 183.5C1472.67 183.5 1485.5 196.335 1485.5 212.167L1485.5 326.833C1485.5 342.665 1472.67 355.5 1456.83 355.5L974.167 355.5C958.335 355.5 945.5 342.665 945.5 326.833Z" stroke="#000000" stroke-width="9.16667" stroke-linejoin="round" stroke-miterlimit="10" fill="#FFFFFF" fill-rule="evenodd"/><text font-family="Calibri,Calibri_MSFontService,sans-serif" font-weight="400" font-size="55" transform="matrix(1 0 0 1 1076.07 287)">Query Client</text><path d="M2099.5 431.334C2099.5 414.857 2112.86 401.5 2129.33 401.5L2566.67 401.5C2583.14 401.5 2596.5 414.857 2596.5 431.334L2596.5 550.666C2596.5 567.143 2583.14 580.5 2566.67 580.5L2129.33 580.5C2112.86 580.5 2099.5 567.143 2099.5 550.666Z" stroke="#000000" stroke-width="9.16667" stroke-linejoin="round" stroke-miterlimit="10" fill="#FFFFFF" fill-rule="evenodd"/><text font-family="Calibri,Calibri_MSFontService,sans-serif" font-weight="400" font-size="55" transform="matrix(1 0 0 1 2195.42 508)">Update Client</text><rect x="1543.5" y="944.5" width="919" height="404" stroke="#000000" stroke-width="9.16667" stroke-linejoin="round" stroke-miterlimit="10" fill="#FFFFFF"/><text font-family="Calibri,Calibri_MSFontService,sans-serif" font-weight="400" font-size="46" transform="matrix(1 0 0 1 1863.04 1004)">Country Server</text><rect x="614.5" y="938.5" width="541" height="269" stroke="#000000" stroke-width="9.16667" stroke-linejoin="round" stroke-miterlimit="10" fill="#FFFFFF"/><text font-family="Calibri,Calibri_MSFontService,sans-serif" font-weight="400" font-size="46" transform="matrix(1 0 0 1 750.811 998)">Country Client</text><path d="M1790.5 1049.83C1790.5 1036.39 1801.39 1025.5 1814.83 1025.5L2212.17 1025.5C2225.61 1025.5 2236.5 1036.39 2236.5 1049.83L2236.5 1147.17C2236.5 1160.61 2225.61 1171.5 2212.17 1171.5L1814.83 1171.5C1801.39 1171.5 1790.5 1160.61 1790.5 1147.17Z" stroke="#000000" stroke-width="9.16667" stroke-linejoin="round" stroke-miterlimit="10" fill="#FFFFFF" fill-rule="evenodd"/><text font-family="Calibri,Calibri_MSFontService,sans-serif" font-weight="400" font-size="46" transform="matrix(1 0 0 1 1926.47 1113)">Directory</text><path d="M654.5 1057C654.5 1043.47 665.469 1032.5 679 1032.5L1101 1032.5C1114.53 1032.5 1125.5 1043.47 1125.5 1057L1125.5 1155C1125.5 1168.53 1114.53 1179.5 1101 1179.5L679 1179.5C665.469 1179.5 654.5 1168.53 654.5 1155Z" stroke="#000000" stroke-width="9.16667" stroke-linejoin="round" stroke-miterlimit="10" fill="#FFFFFF" fill-rule="evenodd"/><text font-family="Calibri,Calibri_MSFontService,sans-serif" font-weight="400" font-size="46" transform="matrix(1 0 0 1 773.001 1121)">Query Client</text><path d="M1790.5 1196.33C1790.5 1182.62 1801.62 1171.5 1815.33 1171.5L2205.67 1171.5C2219.38 1171.5 2230.5 1182.62 2230.5 1196.33L2230.5 1295.67C2230.5 1309.38 2219.38 1320.5 2205.67 1320.5L1815.33 1320.5C1801.62 1320.5 1790.5 1309.38 1790.5 1295.67Z" stroke="#000000" stroke-width="9.16667" stroke-linejoin="round" stroke-miterlimit="10" fill="#FFFFFF" fill-rule="evenodd"/><text font-family="Calibri,Calibri_MSFontService,sans-serif" font-weight="400" font-size="46" transform="matrix(1 0 0 1 1882.36 1261)">Update Client</text><rect x="1009.5" y="1739.5" width="553" height="279" stroke="#000000" stroke-width="9.16667" stroke-linejoin="round" stroke-miterlimit="10" fill="#FFFFFF"/><text font-family="Calibri,Calibri_MSFontService,sans-serif" font-weight="400" font-size="46" transform="matrix(1 0 0 1 1172.81 1798)">Local Server</text><path d="M1051.5 1854.17C1051.5 1841.1 1062.1 1830.5 1075.17 1830.5L1503.83 1830.5C1516.9 1830.5 1527.5 1841.1 1527.5 1854.17L1527.5 1948.83C1527.5 1961.9 1516.9 1972.5 1503.83 1972.5L1075.17 1972.5C1062.1 1972.5 1051.5 1961.9 1051.5 1948.83Z" stroke="#000000" stroke-width="9.16667" stroke-linejoin="round" stroke-miterlimit="10" fill="#FFFFFF" fill-rule="evenodd"/><text font-family="Calibri,Calibri_MSFontService,sans-serif" font-weight="400" font-size="46" transform="matrix(1 0 0 1 1202.4 1917)">Directory</text><rect x="1729.5" y="1746.5" width="580" height="279" stroke="#000000" stroke-width="9.16667" stroke-linejoin="round" stroke-miterlimit="10" fill="#FFFFFF"/><text font-family="Calibri,Calibri_MSFontService,sans-serif" font-weight="400" font-size="46" transform="matrix(1 0 0 1 1906.26 1805)">Local Server</text><path d="M1772.5 1854.17C1772.5 1841.1 1783.1 1830.5 1796.17 1830.5L2230.83 1830.5C2243.9 1830.5 2254.5 1841.1 2254.5 1854.17L2254.5 1948.83C2254.5 1961.9 2243.9 1972.5 2230.83 1972.5L1796.17 1972.5C1783.1 1972.5 1772.5 1961.9 1772.5 1948.83Z" stroke="#000000" stroke-width="9.16667" stroke-linejoin="round" stroke-miterlimit="10" fill="#FFFFFF" fill-rule="evenodd"/><text font-family="Calibri,Calibri_MSFontService,sans-serif" font-weight="400" font-size="46" transform="matrix(1 0 0 1 1926.34 1917)">Directory</text><rect x="896.5" y="423.5" width="616" height="321" stroke="#000000" stroke-width="9.16667" stroke-linejoin="round" stroke-miterlimit="10" fill="#FFFFFF"/><text font-family="Calibri,Calibri_MSFontService,sans-serif" font-weight="400" font-size="46" transform="matrix(1 0 0 1 958.456 483)">Implementing Partner</text><text font-family="Calibri,Calibri_MSFontService,sans-serif" font-weight="400" font-size="46" transform="matrix(1 0 0 1 1143.98 538)">Server</text><path d="M978.5 574.334C978.5 558.409 991.409 545.5 1007.33 545.5L1434.67 545.5C1450.59 545.5 1463.5 558.409 1463.5 574.334L1463.5 689.666C1463.5 705.591 1450.59 718.5 1434.67 718.5L1007.33 718.5C991.409 718.5 978.5 705.591 978.5 689.666Z" stroke="#000000" stroke-width="9.16667" stroke-linejoin="round" stroke-miterlimit="10" fill="#FFFFFF" fill-rule="evenodd"/><text font-family="Calibri,Calibri_MSFontService,sans-serif" font-weight="400" font-size="46" transform="matrix(1 0 0 1 1134.17 647)">Directory</text><path d="M1485.63 267.786 2096.49 313.95 2096.23 317.378 1485.37 271.214ZM2071.12 296.18 2099.76 315.92 2068.48 331.133C2067.62 331.548 2066.6 331.192 2066.18 330.339 2065.77 329.485 2066.12 328.457 2066.97 328.041L2095.61 314.118 2095.38 317.078 2069.17 299.01C2068.39 298.471 2068.19 297.401 2068.73 296.62 2069.27 295.838 2070.34 295.641 2071.12 296.18Z"/><text font-family="Calibri,Calibri_MSFontService,sans-serif" font-weight="400" font-size="32" transform="matrix(1 0 0 1 1493.77 237)">Find Matching Care Services [ITI-90]</text><path d="M0.0194974-1.71864 662.096 5.79239 662.057 9.22967-0.0194974 1.71864ZM635.632-10.3164 665.477 7.5496 635.235 24.7339C634.409 25.2029 633.36 24.914 632.891 24.0887 632.422 23.2634 632.711 22.2142 633.536 21.7452L661.217 6.01655 661.183 8.9856 633.867-7.36699C633.052-7.85455 632.787-8.91005 633.275-9.7245 633.762-10.539 634.818-10.804 635.632-10.3164Z" transform="matrix(1 0 0 -1 1125.5 1106.05)"/><text font-family="Calibri,Calibri_MSFontService,sans-serif" font-weight="400" font-size="32" transform="matrix(1 0 0 1 1159.12 1047)">Find Matching Care Services</text><text font-family="Calibri,Calibri_MSFontService,sans-serif" font-weight="400" font-size="32" transform="matrix(1 0 0 1 1296.62 1086)">[ITI-90]</text><path d="M0.992893-1.40295 719.411 507.035 717.425 509.841-0.992893 1.40295ZM706.822 478.76 721.222 510.422 686.573 507.372C685.627 507.289 684.928 506.454 685.012 505.509 685.095 504.563 685.929 503.864 686.874 503.948L718.589 506.74 716.873 509.163 703.693 480.183C703.3 479.319 703.682 478.3 704.546 477.907 705.41 477.514 706.429 477.896 706.822 478.76Z" transform="matrix(-1 0 0 1 2010.72 1320.5)"/><text font-family="Calibri,Calibri_MSFontService,sans-serif" font-weight="400" font-size="37" transform="matrix(1 0 0 1 1042.05 1578)">Request for Care Services Updates</text><text font-family="Calibri,Calibri_MSFontService,sans-serif" font-weight="400" font-size="37" transform="matrix(1 0 0 1 1446.53 1622)">[ITI-91]</text><path d="M1.68005-0.362699 112.874 514.694 109.514 515.419-1.68005 0.362699ZM122.707 485.333 111.916 518.4 88.4436 492.73C87.803 492.029 87.8517 490.942 88.5522 490.302 89.2527 489.661 90.3399 489.71 90.9805 490.41L112.464 513.906 109.562 514.532 119.439 484.266C119.733 483.364 120.704 482.871 121.606 483.166 122.508 483.46 123.001 484.43 122.707 485.333Z" transform="matrix(-1 0 0 1 2348.41 580.5)"/><text font-family="Calibri,Calibri_MSFontService,sans-serif" font-weight="400" font-size="37" transform="matrix(1 0 0 1 1987.13 683)">Request for Care Services Updates</text><text font-family="Calibri,Calibri_MSFontService,sans-serif" font-weight="400" font-size="37" transform="matrix(1 0 0 1 2391.61 727)">[ITI-91]</text><path d="M2012.22 1320.49 2014.93 1827.51 2011.49 1827.52 2008.78 1320.51ZM2030.6 1800.79 2013.23 1830.93 1995.54 1800.97C1995.06 1800.16 1995.33 1799.1 1996.15 1798.62 1996.97 1798.14 1998.02 1798.41 1998.5 1799.23L2014.69 1826.64 2011.72 1826.66 2027.62 1799.07C2028.09 1798.25 2029.14 1797.97 2029.97 1798.44 2030.79 1798.91 2031.07 1799.96 2030.6 1800.79Z"/><text font-family="Calibri,Calibri_MSFontService,sans-serif" font-weight="400" font-size="37" transform="matrix(1 0 0 1 1911.88 1532)">Request for Care Services Updates</text><text font-family="Calibri,Calibri_MSFontService,sans-serif" font-weight="400" font-size="37" transform="matrix(1 0 0 1 1911.88 1576)">[ITI-91]</text><path d="M0.373278-1.67773 633.284 139.139 632.537 142.494-0.373278 1.67773ZM610.722 117.925 636.244 141.558 603.109 152.141C602.205 152.43 601.238 151.931 600.949 151.027 600.66 150.122 601.159 149.155 602.064 148.866L632.391 139.18 631.746 142.078 608.387 120.447C607.69 119.802 607.648 118.715 608.293 118.018 608.938 117.322 610.026 117.28 610.722 117.925Z" transform="matrix(-1 0 0 1 2099.74 490.5)"/><text font-family="Calibri,Calibri_MSFontService,sans-serif" font-weight="400" font-size="32" transform="matrix(1 0 0 1 1544.49 490)">Request for Care Services Updates</text><text font-family="Calibri,Calibri_MSFontService,sans-serif" font-weight="400" font-size="32" transform="matrix(1 0 0 1 1544.49 529)">[ITI-91]</text></g></svg>
